<?xml version="1.0" standalone="no"?>
<!DOCTYPE svg PUBLIC "-//W3C//DTD SVG 20010904//EN"
 "http://www.w3.org/TR/2001/REC-SVG-20010904/DTD/svg10.dtd">
<svg version="1.0" xmlns="http://www.w3.org/2000/svg"
 width="1625.000000pt" height="851.000000pt" viewBox="0 0 1625.000000 851.000000"
 preserveAspectRatio="xMidYMid meet">

<g transform="translate(0.000000,851.000000) scale(0.100000,-0.100000)"
fill="#000000" stroke="none">
<path d="M3080 8348 c-26 -14 -57 -41 -75 -66 l-30 -44 0 -1606 0 -1607 193
-3 192 -2 0 1490 0 1490 3825 0 3825 0 0 -1765 0 -1765 165 0 165 0 -2 1883
-3 1883 -28 42 c-17 26 -45 51 -77 67 l-49 25 -4029 0 -4028 0 -44 -22z"/>
<path d="M3436 7908 c-9 -12 -16 -34 -16 -48 0 -27 25 -70 41 -70 5 0 0 9 -11
20 -11 11 -20 33 -20 50 0 17 9 39 20 50 11 11 16 20 11 20 -6 0 -17 -10 -25
-22z"/>
<path d="M3533 7910 c14 -11 28 -33 30 -48 l4 -27 2 26 c1 25 -30 69 -51 69
-6 0 1 -9 15 -20z"/>
<path d="M3457 7894 c-15 -15 -6 -54 14 -65 34 -18 71 4 67 39 -3 23 -8 27
-38 30 -20 2 -39 0 -43 -4z m73 -29 c0 -22 -4 -25 -35 -25 -31 0 -35 3 -35 25
0 22 4 25 35 25 31 0 35 -3 35 -25z"/>
<path d="M3630 7891 c0 -5 5 -13 10 -16 6 -3 10 -2 10 4 0 5 -4 13 -10 16 -5
3 -10 2 -10 -4z"/>
<path d="M3671 7884 c0 -11 3 -14 6 -6 3 7 2 16 -1 19 -3 4 -6 -2 -5 -13z"/>
<path d="M3782 7865 c0 -22 2 -34 5 -27 2 6 10 9 16 5 9 -5 9 -3 1 8 -7 8 -14
23 -17 34 -2 11 -5 2 -5 -20z"/>
<path d="M3882 7868 c-2 -27 2 -38 12 -38 8 0 18 4 21 10 3 5 0 7 -9 4 -11 -4
-16 3 -19 28 l-4 33 -1 -37z"/>
<path d="M3963 7865 c0 -22 2 -30 4 -17 2 12 2 30 0 40 -3 9 -5 -1 -4 -23z"/>
<path d="M3696 7872 c-2 -4 4 -8 14 -8 10 0 16 4 14 8 -3 4 -9 8 -14 8 -5 0
-11 -4 -14 -8z"/>
<path d="M3742 7855 c0 -16 2 -22 5 -12 2 9 2 23 0 30 -3 6 -5 -1 -5 -18z"/>
<path d="M3838 7873 c7 -3 16 -2 19 1 4 3 -2 6 -13 5 -11 0 -14 -3 -6 -6z"/>
<path d="M4495 7859 c-11 -16 -1 -19 13 -3 7 8 8 14 3 14 -5 0 -13 -5 -16 -11z"/>
<path d="M3650 7844 c0 -8 5 -12 10 -9 6 4 8 11 5 16 -9 14 -15 11 -15 -7z"/>
<path d="M4057 7842 c3 -8 0 -18 -8 -24 -12 -8 -12 -9 0 -6 19 5 33 45 16 45
-7 0 -11 -7 -8 -15z"/>
<path d="M3700 7836 c7 -7 13 -7 20 0 6 6 3 10 -10 10 -13 0 -16 -4 -10 -10z"/>
<path d="M3531 7810 c-13 -11 -19 -20 -13 -20 10 0 42 27 42 36 0 7 -4 5 -29
-16z"/>
<path d="M10994 7600 c0 -69 1 -97 3 -62 2 34 2 90 0 125 -2 34 -3 6 -3 -63z"/>
<path d="M7076 7524 c-121 -44 -198 -156 -198 -288 0 -86 21 -143 77 -204 113
-125 317 -128 437 -7 118 119 117 305 -2 425 -82 81 -211 112 -314 74z m221
-47 c42 -22 98 -78 119 -120 10 -17 19 -64 22 -102 6 -89 -21 -156 -82 -213
-168 -155 -446 -33 -446 196 0 98 66 198 160 242 36 17 59 20 120 17 44 -2 88
-11 107 -20z"/>
<path d="M7012 7368 c-8 -8 -12 -48 -12 -113 0 -65 4 -105 12 -113 8 -8 60
-12 170 -12 186 0 178 -6 178 125 0 131 8 125 -178 125 -110 0 -162 -4 -170
-12z m303 -113 l0 -90 -140 0 -140 0 -3 79 c-2 44 -1 85 2 93 5 11 34 13 143
11 l138 -3 0 -90z"/>
<path d="M7110 7095 c0 -12 14 -15 71 -15 52 0 70 3 67 13 -3 7 -29 13 -71 15
-55 2 -67 0 -67 -13z"/>
<path d="M7040 6765 c0 -50 4 -85 10 -85 6 0 10 12 10 27 l0 27 30 -29 c35
-34 49 -29 20 8 -25 32 -25 35 2 64 12 13 16 23 9 23 -6 0 -23 -12 -36 -27
l-24 -28 -1 53 c0 28 -4 52 -10 52 -6 0 -10 -35 -10 -85z"/>
<path d="M7280 6766 l0 -84 40 2 c51 3 62 14 58 61 -4 46 -28 66 -58 47 -19
-11 -20 -10 -20 23 0 19 -4 35 -10 35 -6 0 -10 -35 -10 -84z m75 -26 c0 -31
-3 -35 -25 -35 -19 0 -26 6 -28 23 -5 36 5 54 30 50 19 -2 23 -9 23 -38z"/>
<path d="M7416 6841 c-4 -5 -2 -12 3 -15 5 -4 12 -2 15 3 4 5 2 12 -3 15 -5 4
-12 2 -15 -3z"/>
<path d="M7470 6765 c0 -69 3 -85 15 -85 12 0 15 16 15 85 0 69 -3 85 -15 85
-12 0 -15 -16 -15 -85z"/>
<path d="M7536 6841 c-4 -5 -2 -12 3 -15 5 -4 12 -2 15 3 4 5 2 12 -3 15 -5 4
-12 2 -15 -3z"/>
<path d="M6590 6829 c0 -7 9 -43 20 -80 26 -86 44 -90 61 -14 7 30 15 55 19
55 4 0 14 -24 22 -52 21 -75 38 -68 64 25 15 56 18 77 9 77 -7 0 -18 -26 -25
-60 -7 -33 -16 -60 -20 -60 -4 0 -13 27 -20 60 -7 34 -18 60 -25 60 -7 0 -20
-28 -30 -62 -19 -68 -23 -67 -45 20 -10 38 -30 59 -30 31z"/>
<path d="M7596 6809 c-11 -13 -14 -24 -8 -28 6 -3 12 -24 14 -45 3 -39 29 -68
45 -52 4 4 0 12 -10 17 -22 13 -24 79 -2 79 8 0 15 5 15 10 0 6 -6 10 -14 10
-8 0 -16 7 -18 15 -2 13 -7 12 -22 -6z"/>
<path d="M6826 6784 c-34 -33 -10 -104 35 -104 26 0 59 35 59 63 0 48 -61 74
-94 41z m68 -26 c15 -25 -4 -53 -35 -53 -25 0 -37 30 -25 61 8 20 46 14 60 -8z"/>
<path d="M6950 6738 c0 -32 4 -58 10 -58 6 0 10 16 10 35 0 22 8 43 20 55 26
26 26 27 -10 27 -30 0 -30 -1 -30 -59z"/>
<path d="M7167 6793 c-14 -14 -6 -19 23 -15 40 6 38 -13 -2 -24 -25 -7 -34
-16 -36 -36 -4 -31 29 -48 53 -28 11 9 15 9 15 1 0 -6 5 -11 10 -11 14 0 12
94 -2 108 -13 13 -50 16 -61 5z m53 -68 c0 -9 -7 -18 -16 -22 -18 -7 -39 11
-30 26 11 17 46 13 46 -4z"/>
<path d="M7410 6740 c0 -47 3 -60 15 -60 12 0 15 13 15 60 0 47 -3 60 -15 60
-12 0 -15 -13 -15 -60z"/>
<path d="M7530 6740 c0 -47 3 -60 15 -60 12 0 15 13 15 60 0 47 -3 60 -15 60
-12 0 -15 -13 -15 -60z"/>
<path d="M7681 6748 c11 -29 22 -55 25 -60 3 -4 -5 -17 -16 -28 -25 -25 -21
-36 8 -21 10 5 29 38 42 73 12 35 25 69 27 76 3 6 1 12 -5 12 -6 0 -16 -17
-22 -37 -18 -57 -26 -59 -40 -9 -7 26 -19 46 -26 46 -11 0 -9 -12 7 -52z"/>
<path d="M5558 6483 c7 -3 16 -2 19 1 4 3 -2 6 -13 5 -11 0 -14 -3 -6 -6z"/>
<path d="M5838 6463 c7 -3 16 -2 19 1 4 3 -2 6 -13 5 -11 0 -14 -3 -6 -6z"/>
<path d="M5890 6465 c0 -8 29 -12 39 -5 9 5 4 8 -13 8 -14 0 -26 -2 -26 -3z"/>
<path d="M5968 6463 c7 -3 16 -2 19 1 4 3 -2 6 -13 5 -11 0 -14 -3 -6 -6z"/>
<path d="M6048 6463 c7 -3 16 -2 19 1 4 3 -2 6 -13 5 -11 0 -14 -3 -6 -6z"/>
<path d="M6148 6463 c7 -3 16 -2 19 1 4 3 -2 6 -13 5 -11 0 -14 -3 -6 -6z"/>
<path d="M6198 6463 c7 -3 16 -2 19 1 4 3 -2 6 -13 5 -11 0 -14 -3 -6 -6z"/>
<path d="M6298 6463 c7 -3 16 -2 19 1 4 3 -2 6 -13 5 -11 0 -14 -3 -6 -6z"/>
<path d="M6348 6463 c7 -3 16 -2 19 1 4 3 -2 6 -13 5 -11 0 -14 -3 -6 -6z"/>
<path d="M6468 6463 c7 -3 16 -2 19 1 4 3 -2 6 -13 5 -11 0 -14 -3 -6 -6z"/>
<path d="M6598 6463 c7 -3 16 -2 19 1 4 3 -2 6 -13 5 -11 0 -14 -3 -6 -6z"/>
<path d="M6648 6463 c7 -3 16 -2 19 1 4 3 -2 6 -13 5 -11 0 -14 -3 -6 -6z"/>
<path d="M6728 6463 c7 -3 16 -2 19 1 4 3 -2 6 -13 5 -11 0 -14 -3 -6 -6z"/>
<path d="M7358 6463 c7 -3 16 -2 19 1 4 3 -2 6 -13 5 -11 0 -14 -3 -6 -6z"/>
<path d="M7438 6463 c7 -3 16 -2 19 1 4 3 -2 6 -13 5 -11 0 -14 -3 -6 -6z"/>
<path d="M7488 6463 c7 -3 16 -2 19 1 4 3 -2 6 -13 5 -11 0 -14 -3 -6 -6z"/>
<path d="M7558 6463 c7 -3 16 -2 19 1 4 3 -2 6 -13 5 -11 0 -14 -3 -6 -6z"/>
<path d="M7678 6463 c7 -3 16 -2 19 1 4 3 -2 6 -13 5 -11 0 -14 -3 -6 -6z"/>
<path d="M7808 6463 c7 -3 16 -2 19 1 4 3 -2 6 -13 5 -11 0 -14 -3 -6 -6z"/>
<path d="M7930 6465 c0 -8 29 -12 39 -5 9 5 4 8 -13 8 -14 0 -26 -2 -26 -3z"/>
<path d="M8018 6463 c7 -3 16 -2 19 1 4 3 -2 6 -13 5 -11 0 -14 -3 -6 -6z"/>
<path d="M8098 6463 c7 -3 16 -2 19 1 4 3 -2 6 -13 5 -11 0 -14 -3 -6 -6z"/>
<path d="M8178 6463 c7 -3 16 -2 19 1 4 3 -2 6 -13 5 -11 0 -14 -3 -6 -6z"/>
<path d="M8258 6463 c7 -3 16 -2 19 1 4 3 -2 6 -13 5 -11 0 -14 -3 -6 -6z"/>
<path d="M8308 6463 c7 -3 16 -2 19 1 4 3 -2 6 -13 5 -11 0 -14 -3 -6 -6z"/>
<path d="M8548 6463 c7 -3 16 -2 19 1 4 3 -2 6 -13 5 -11 0 -14 -3 -6 -6z"/>
<path d="M8748 6463 c7 -3 16 -2 19 1 4 3 -2 6 -13 5 -11 0 -14 -3 -6 -6z"/>
<path d="M8798 6463 c7 -3 16 -2 19 1 4 3 -2 6 -13 5 -11 0 -14 -3 -6 -6z"/>
<path d="M5608 6443 c6 -2 18 -2 25 0 6 3 1 5 -13 5 -14 0 -19 -2 -12 -5z"/>
<path d="M5738 6443 c6 -2 18 -2 25 0 6 3 1 5 -13 5 -14 0 -19 -2 -12 -5z"/>
<path d="M6048 6443 c7 -3 16 -2 19 1 4 3 -2 6 -13 5 -11 0 -14 -3 -6 -6z"/>
<path d="M6198 6443 c7 -3 16 -2 19 1 4 3 -2 6 -13 5 -11 0 -14 -3 -6 -6z"/>
<path d="M6518 6443 c7 -3 16 -2 19 1 4 3 -2 6 -13 5 -11 0 -14 -3 -6 -6z"/>
<path d="M6598 6443 c7 -3 16 -2 19 1 4 3 -2 6 -13 5 -11 0 -14 -3 -6 -6z"/>
<path d="M7108 6443 c6 -2 18 -2 25 0 6 3 1 5 -13 5 -14 0 -19 -2 -12 -5z"/>
<path d="M7158 6443 c6 -2 18 -2 25 0 6 3 1 5 -13 5 -14 0 -19 -2 -12 -5z"/>
<path d="M7488 6443 c7 -3 16 -2 19 1 4 3 -2 6 -13 5 -11 0 -14 -3 -6 -6z"/>
<path d="M7858 6443 c6 -2 18 -2 25 0 6 3 1 5 -13 5 -14 0 -19 -2 -12 -5z"/>
<path d="M8098 6443 c7 -3 16 -2 19 1 4 3 -2 6 -13 5 -11 0 -14 -3 -6 -6z"/>
<path d="M8548 6443 c7 -3 16 -2 19 1 4 3 -2 6 -13 5 -11 0 -14 -3 -6 -6z"/>
<path d="M8798 6443 c7 -3 16 -2 19 1 4 3 -2 6 -13 5 -11 0 -14 -3 -6 -6z"/>
<path d="M5548 6428 c6 -6 18 -8 28 -6 14 3 12 5 -9 10 -19 3 -25 2 -19 -4z"/>
<path d="M5618 6423 c7 -3 16 -2 19 1 4 3 -2 6 -13 5 -11 0 -14 -3 -6 -6z"/>
<path d="M5748 6423 c7 -3 16 -2 19 1 4 3 -2 6 -13 5 -11 0 -14 -3 -6 -6z"/>
<path d="M5838 6423 c7 -3 16 -2 19 1 4 3 -2 6 -13 5 -11 0 -14 -3 -6 -6z"/>
<path d="M6048 6423 c7 -3 16 -2 19 1 4 3 -2 6 -13 5 -11 0 -14 -3 -6 -6z"/>
<path d="M6298 6423 c7 -3 16 -2 19 1 4 3 -2 6 -13 5 -11 0 -14 -3 -6 -6z"/>
<path d="M6598 6423 c7 -3 16 -2 19 1 4 3 -2 6 -13 5 -11 0 -14 -3 -6 -6z"/>
<path d="M6648 6423 c7 -3 16 -2 19 1 4 3 -2 6 -13 5 -11 0 -14 -3 -6 -6z"/>
<path d="M6728 6423 c7 -3 16 -2 19 1 4 3 -2 6 -13 5 -11 0 -14 -3 -6 -6z"/>
<path d="M7118 6423 c7 -3 16 -2 19 1 4 3 -2 6 -13 5 -11 0 -14 -3 -6 -6z"/>
<path d="M7168 6423 c7 -3 16 -2 19 1 4 3 -2 6 -13 5 -11 0 -14 -3 -6 -6z"/>
<path d="M7208 6423 c7 -3 16 -2 19 1 4 3 -2 6 -13 5 -11 0 -14 -3 -6 -6z"/>
<path d="M7358 6423 c7 -3 16 -2 19 1 4 3 -2 6 -13 5 -11 0 -14 -3 -6 -6z"/>
<path d="M7488 6423 c7 -3 16 -2 19 1 4 3 -2 6 -13 5 -11 0 -14 -3 -6 -6z"/>
<path d="M7558 6423 c7 -3 16 -2 19 1 4 3 -2 6 -13 5 -11 0 -14 -3 -6 -6z"/>
<path d="M7678 6423 c7 -3 16 -2 19 1 4 3 -2 6 -13 5 -11 0 -14 -3 -6 -6z"/>
<path d="M7728 6423 c7 -3 16 -2 19 1 4 3 -2 6 -13 5 -11 0 -14 -3 -6 -6z"/>
<path d="M7868 6423 c7 -3 16 -2 19 1 4 3 -2 6 -13 5 -11 0 -14 -3 -6 -6z"/>
<path d="M8018 6423 c7 -3 16 -2 19 1 4 3 -2 6 -13 5 -11 0 -14 -3 -6 -6z"/>
<path d="M8098 6423 c7 -3 16 -2 19 1 4 3 -2 6 -13 5 -11 0 -14 -3 -6 -6z"/>
<path d="M8258 6423 c7 -3 16 -2 19 1 4 3 -2 6 -13 5 -11 0 -14 -3 -6 -6z"/>
<path d="M8308 6423 c7 -3 16 -2 19 1 4 3 -2 6 -13 5 -11 0 -14 -3 -6 -6z"/>
<path d="M8548 6423 c7 -3 16 -2 19 1 4 3 -2 6 -13 5 -11 0 -14 -3 -6 -6z"/>
<path d="M8798 6423 c7 -3 16 -2 19 1 4 3 -2 6 -13 5 -11 0 -14 -3 -6 -6z"/>
<path d="M7178 6313 c7 -3 16 -2 19 1 4 3 -2 6 -13 5 -11 0 -14 -3 -6 -6z"/>
<path d="M7248 6313 c7 -3 16 -2 19 1 4 3 -2 6 -13 5 -11 0 -14 -3 -6 -6z"/>
<path d="M7298 6313 c7 -3 16 -2 19 1 4 3 -2 6 -13 5 -11 0 -14 -3 -6 -6z"/>
<path d="M7338 6313 c7 -3 16 -2 19 1 4 3 -2 6 -13 5 -11 0 -14 -3 -6 -6z"/>
<path d="M7248 6293 c7 -3 16 -2 19 1 4 3 -2 6 -13 5 -11 0 -14 -3 -6 -6z"/>
<path d="M7338 6293 c7 -3 16 -2 19 1 4 3 -2 6 -13 5 -11 0 -14 -3 -6 -6z"/>
<path d="M7178 6273 c7 -3 16 -2 19 1 4 3 -2 6 -13 5 -11 0 -14 -3 -6 -6z"/>
<path d="M7338 6273 c7 -3 16 -2 19 1 4 3 -2 6 -13 5 -11 0 -14 -3 -6 -6z"/>
<path d="M6626 6064 c-25 -25 -20 -72 8 -86 33 -15 56 -4 56 27 0 17 -5 25
-17 24 -11 0 -13 -3 -5 -6 14 -6 16 -29 2 -38 -18 -11 -50 15 -50 40 0 27 32
50 56 41 9 -3 12 -1 9 4 -9 15 -42 12 -59 -6z"/>
<path d="M7350 6059 c0 -15 -5 -19 -19 -14 -23 7 -44 -17 -39 -47 2 -18 10
-23 36 -25 l32 -1 0 54 c0 30 -2 54 -5 54 -3 0 -5 -9 -5 -21z m-10 -35 c11
-12 11 -18 -2 -31 -19 -18 -38 -10 -38 16 0 33 20 40 40 15z"/>
<path d="M7432 6025 c1 -47 2 -52 7 -25 4 22 12 35 21 35 9 0 18 -13 22 -35
l6 -35 -1 40 c-2 33 -6 40 -22 40 -11 0 -23 9 -27 20 -3 11 -6 -7 -6 -40z"/>
<path d="M6803 6059 c-12 -12 -2 -81 12 -86 6 -2 9 16 8 43 -1 51 -5 58 -20
43z"/>
<path d="M6962 6054 c-7 -8 -8 -15 -2 -19 6 -3 10 -19 10 -36 0 -16 4 -29 8
-29 5 0 6 14 4 31 -3 17 0 34 6 38 6 4 6 10 -2 17 -9 8 -15 7 -24 -2z"/>
<path d="M7163 6059 c-12 -12 -2 -81 12 -86 6 -2 9 16 8 43 -1 51 -5 58 -20
43z"/>
<path d="M6720 6030 c-15 -27 4 -60 33 -59 l22 0 -22 9 c-31 12 -29 30 2 30
27 0 32 9 13 28 -18 18 -36 15 -48 -8z m45 0 c3 -5 -3 -10 -14 -10 -12 0 -21
5 -21 10 0 6 6 10 14 10 8 0 18 -4 21 -10z"/>
<path d="M6894 6038 c-4 -6 3 -19 15 -30 l23 -18 -23 -10 -24 -10 25 3 c32 3
39 33 9 42 -22 7 -22 8 -4 21 16 12 16 14 3 14 -9 0 -20 -5 -24 -12z"/>
<path d="M7040 6039 l25 -11 -28 -10 c-30 -11 -34 -37 -7 -46 12 -4 13 -3 3
10 -14 16 -8 28 15 28 8 0 12 -6 9 -15 -4 -8 -2 -17 4 -21 7 -4 9 8 7 32 -3
33 -7 39 -28 41 l-25 3 25 -11z"/>
<path d="M7101 6005 c2 -33 3 -35 6 -10 2 17 11 35 20 42 13 10 13 12 -6 10
-18 -1 -21 -7 -20 -42z"/>
<path d="M7223 6043 c-7 -2 -13 -17 -13 -33 0 -26 16 -41 43 -39 7 0 2 4 -10
9 -31 13 -29 30 3 30 19 0 25 5 22 17 -3 18 -24 26 -45 16z m32 -13 c3 -5 -3
-10 -15 -10 -12 0 -18 5 -15 10 3 6 10 10 15 10 5 0 12 -4 15 -10z"/>
<path d="M7522 6038 c-26 -26 -6 -69 33 -67 19 0 19 0 -1 9 -36 14 -38 30 -4
30 28 0 30 2 20 20 -12 23 -30 26 -48 8z m38 -8 c0 -5 -7 -10 -15 -10 -8 0
-15 5 -15 10 0 6 7 10 15 10 8 0 15 -4 15 -10z"/>
<path d="M7601 6005 c2 -33 3 -35 6 -10 2 17 11 35 20 42 13 10 13 12 -6 10
-18 -1 -21 -7 -20 -42z"/>
<path d="M7663 6043 c-7 -2 -13 -17 -13 -33 0 -26 16 -41 43 -39 7 0 2 4 -10
9 -31 13 -29 30 3 30 19 0 25 5 22 17 -3 18 -24 26 -45 16z m32 -13 c3 -5 -3
-10 -15 -10 -12 0 -18 5 -15 10 3 6 10 10 15 10 5 0 12 -4 15 -10z"/>
<path d="M7572 5373 l-2 -82 -72 -4 -73 -3 73 -2 c53 -1 74 2 78 11 3 8 3 47
1 88 l-3 74 -2 -82z"/>
<path d="M6860 5300 l0 -80 70 0 70 0 0 80 0 80 -70 0 -70 0 0 -80z"/>
<path d="M7162 5178 c-7 -7 -12 -41 -12 -90 l0 -78 70 0 70 0 0 80 0 80 -54 0
c-30 0 -56 5 -58 10 -2 7 -8 6 -16 -2z"/>
<path d="M7313 5110 c0 -47 2 -66 4 -42 2 23 2 61 0 85 -2 23 -4 4 -4 -43z"/>
<path d="M6605 5087 c-10 -19 -13 -42 -9 -60 6 -28 6 -28 21 -8 11 17 25 21
71 21 36 0 66 -6 80 -16 21 -15 22 -14 22 20 0 51 -34 74 -110 75 -56 0 -60
-1 -75 -32z"/>
<path d="M7620 5086 c-50 -16 -80 -66 -80 -131 0 -38 4 -55 15 -59 8 -3 15 0
15 6 0 7 4 7 14 -1 9 -8 44 -11 96 -9 97 4 106 11 96 82 -13 85 -84 136 -156
112z"/>
<path d="M4410 5031 c0 -9 158 -20 166 -12 2 2 1 8 -2 12 -7 12 -164 11 -164
0z"/>
<path d="M4720 5003 c57 -9 71 -15 105 -45 51 -45 59 -63 66 -158 l7 -85 -2
97 c-1 81 -4 101 -22 125 -36 48 -82 73 -133 72 -25 -1 -35 -3 -21 -6z"/>
<path d="M1774 4971 c-23 -10 -52 -34 -65 -52 l-24 -34 -3 -1925 c-1 -1059 0
-1940 3 -1958 8 -44 56 -96 102 -111 29 -9 314 -11 1228 -9 l1190 3 0 170 0
170 -1096 3 -1097 2 -7 808 c-6 629 0 2551 8 2559 6 5 2469 15 2491 9 l26 -6
2 -853 3 -852 165 0 165 0 3 983 c2 1096 7 1027 -69 1081 l-42 31 -1471 0
c-1413 0 -1473 -1 -1512 -19z"/>
<path d="M6595 4856 c-11 -7 -33 -21 -50 -32 -16 -10 -43 -21 -60 -24 l-30 -5
-3 -142 c-1 -84 -7 -143 -12 -143 -6 0 -10 -9 -10 -20 0 -20 7 -20 270 -20
263 0 270 0 270 20 0 11 -4 20 -10 20 -5 0 -11 59 -12 143 l-3 142 -40 3 c-22
2 -45 9 -50 16 -6 7 -29 23 -52 35 -49 24 -174 29 -208 7z m139 -168 c8 -14 7
-22 -7 -35 -16 -16 -18 -16 -38 4 -26 26 -19 56 12 51 12 -2 27 -11 33 -20z"/>
<path d="M6710 4660 c-9 -6 -10 -10 -3 -10 6 0 15 5 18 10 8 12 4 12 -15 0z"/>
<path d="M7535 4853 c-29 -7 -45 -23 -45 -44 0 -15 -8 -19 -40 -19 l-40 0 0
-139 c0 -114 -3 -140 -15 -145 -8 -3 -15 -12 -15 -21 0 -13 34 -15 264 -15
267 0 304 5 263 35 -10 7 -17 24 -17 39 0 23 4 26 36 26 19 0 44 -5 55 -11 26
-13 51 6 47 35 -3 18 -10 21 -59 22 -30 0 -60 4 -67 8 -8 5 -12 36 -12 87 l0
79 -38 0 c-29 0 -40 5 -47 22 -6 12 -26 27 -45 34 -34 12 -185 17 -225 7z
m140 -159 c21 -22 15 -48 -12 -52 -28 -4 -50 32 -32 54 15 18 24 18 44 -2z"/>
<path d="M7665 4660 c-3 -5 -1 -10 4 -10 6 0 11 5 11 10 0 6 -2 10 -4 10 -3 0
-8 -4 -11 -10z"/>
<path d="M4900 4550 c0 -19 3 -21 12 -12 9 9 9 15 0 24 -9 9 -12 7 -12 -12z"/>
<path d="M2080 4546 c0 -2 11 -6 25 -8 13 -3 22 -1 19 3 -5 9 -44 13 -44 5z"/>
<path d="M2122 4500 c0 -14 2 -19 5 -12 2 6 2 18 0 25 -3 6 -5 1 -5 -13z"/>
<path d="M8888 4451 c-45 -15 -87 -51 -108 -91 -19 -38 -20 -61 -20 -557 0
-285 -3 -527 -6 -538 -5 -20 -12 -20 -1923 -17 -1794 2 -1919 1 -1925 -15 -4
-9 -4 -89 0 -178 l7 -162 196 1 c214 1 236 -4 280 -60 32 -41 25 -49 -9 -11
-16 19 -42 40 -58 46 -20 8 -164 11 -514 9 -474 -3 -487 -4 -514 -24 -15 -11
-37 -33 -48 -48 -21 -27 -21 -35 -24 -1000 l-2 -972 -28 3 c-15 2 -556 5
-1202 6 l-1175 2 -57 27 c-49 23 -62 25 -100 17 -93 -21 -75 -46 43 -59 143
-15 486 -20 1521 -20 l996 0 4 -117 c3 -106 6 -122 27 -152 13 -18 42 -42 65
-52 38 -17 74 -19 504 -19 490 0 504 1 555 48 49 44 47 -2 47 1162 l0 1090
1665 2 1664 3 6 -22 c3 -12 5 -490 5 -1064 0 -573 1 -1044 4 -1046 2 -2 527
-6 1167 -7 640 -2 1173 -4 1184 -5 11 -1 207 0 435 1 228 2 439 1 469 -4 34
-5 59 -4 67 3 8 7 391 10 1166 9 634 -1 1159 -1 1166 -1 17 1 18 3631 0 3682
-17 50 -48 89 -89 110 -35 17 -131 18 -2725 24 -1584 3 -2700 1 -2716 -4z
m5372 -1895 l0 -1663 -52 -7 c-29 -3 -1226 -6 -2660 -6 l-2608 0 0 1670 0
1670 2660 0 2660 0 0 -1664z m-8946 -92 l46 -7 0 -783 0 -784 -529 0 -528 0
-7 348 c-4 191 -6 546 -4 790 l2 442 487 0 c267 0 507 -3 533 -6z m31 -1594
c-4 -6 -190 -10 -525 -10 -335 0 -521 4 -525 10 -4 7 173 10 525 10 352 0 529
-3 525 -10z"/>
<path d="M9007 4142 c-24 -26 -21 -65 6 -88 22 -19 22 -19 5 2 -25 29 -23 70
4 88 12 9 18 16 12 16 -6 0 -18 -8 -27 -18z"/>
<path d="M9096 4138 c10 -14 21 -24 23 -22 3 3 -6 15 -18 27 l-24 22 19 -27z"/>
<path d="M9038 4123 c12 -2 30 -2 40 0 9 3 -1 5 -23 4 -22 0 -30 -2 -17 -4z"/>
<path d="M9040 4070 c0 -5 4 -10 9 -10 6 0 13 5 16 10 3 6 -1 10 -9 10 -9 0
-16 -4 -16 -10z"/>
<path d="M9089 4053 c-13 -16 -12 -17 4 -4 16 13 21 21 13 21 -2 0 -10 -8 -17
-17z"/>
<path d="M11489 3811 c-110 -34 -189 -142 -189 -260 0 -92 64 -188 158 -235
153 -78 351 39 369 217 18 179 -165 330 -338 278z m154 -37 c97 -33 169 -148
153 -246 -31 -193 -268 -271 -397 -131 -88 94 -88 232 1 321 67 67 153 87 243
56z"/>
<path d="M11417 3673 c-12 -12 -8 -188 5 -201 17 -17 269 -17 286 0 7 7 12 44
12 98 0 54 -5 91 -12 98 -13 13 -279 18 -291 5z m273 -103 l0 -80 -125 0 -125
0 0 80 0 80 125 0 125 0 0 -80z"/>
<path d="M11512 3443 c-26 -10 2 -23 53 -23 54 0 79 12 49 24 -18 7 -83 7
-102 -1z"/>
<path d="M11440 3145 c0 -43 4 -75 10 -75 6 0 10 9 10 20 0 26 8 25 30 -2 10
-13 21 -20 24 -17 4 3 -3 17 -14 31 -19 25 -19 25 0 43 11 10 18 21 15 23 -3
3 -16 -5 -30 -18 l-25 -23 0 46 c0 26 -4 47 -10 47 -6 0 -10 -32 -10 -75z"/>
<path d="M11650 3147 l0 -74 33 0 c41 0 57 13 57 47 0 34 -22 54 -50 45 -17
-5 -20 -2 -20 24 0 17 -4 31 -10 31 -6 0 -10 -31 -10 -73z m73 -9 c7 -23 -5
-48 -24 -48 -22 0 -34 22 -25 45 7 18 43 20 49 3z"/>
<path d="M11820 3151 c0 -39 5 -73 10 -76 6 -4 10 22 10 69 0 44 -4 76 -10 76
-6 0 -10 -30 -10 -69z"/>
<path d="M11056 3184 c31 -122 47 -140 65 -70 6 26 15 49 19 51 5 3 13 -18 20
-45 7 -29 17 -49 23 -47 6 2 19 30 29 63 20 68 21 74 9 74 -5 0 -14 -23 -21
-51 -14 -56 -20 -56 -35 3 -15 58 -31 58 -46 -2 -12 -46 -29 -68 -29 -37 0 6
-5 29 -11 50 -11 41 -33 52 -23 11z"/>
<path d="M11770 3200 c0 -5 5 -10 10 -10 6 0 10 5 10 10 0 6 -4 10 -10 10 -5
0 -10 -4 -10 -10z"/>
<path d="M11875 3200 c3 -5 8 -10 11 -10 2 0 4 5 4 10 0 6 -5 10 -11 10 -5 0
-7 -4 -4 -10z"/>
<path d="M11933 3185 c-20 -40 10 -137 35 -110 4 4 1 10 -5 12 -7 3 -13 17
-13 33 0 16 6 31 13 33 8 4 9 8 1 14 -6 4 -13 15 -16 23 -4 12 -7 11 -15 -5z"/>
<path d="M11254 3149 c-17 -19 -17 -23 -3 -47 8 -15 23 -28 33 -30 23 -5 56
26 56 53 0 46 -52 61 -86 24z m64 -26 c-3 -32 -44 -46 -54 -19 -10 26 4 46 31
46 23 0 26 -4 23 -27z"/>
<path d="M11370 3119 c0 -27 5 -49 10 -49 6 0 10 16 10 35 0 22 6 38 15 41 23
9 18 22 -10 22 -23 0 -25 -4 -25 -49z"/>
<path d="M11555 3159 c-4 -6 -1 -10 6 -8 47 6 54 -16 9 -26 -21 -5 -30 -13
-30 -26 0 -24 27 -36 43 -20 8 8 7 11 -6 11 -21 0 -22 16 -1 24 23 9 24 8 24
-19 0 -14 5 -25 10 -25 14 0 12 74 -2 88 -15 15 -45 16 -53 1z"/>
<path d="M11770 3120 c0 -27 5 -50 10 -50 6 0 10 23 10 50 0 28 -4 50 -10 50
-5 0 -10 -22 -10 -50z"/>
<path d="M11870 3126 c0 -25 5 -48 10 -51 6 -4 10 13 10 44 0 28 -4 51 -10 51
-5 0 -10 -20 -10 -44z"/>
<path d="M11990 3165 c0 -3 7 -22 15 -42 20 -47 19 -70 -2 -82 -10 -5 -14 -13
-10 -17 4 -4 16 1 26 12 22 23 65 134 52 134 -5 0 -15 -16 -21 -35 -13 -40
-25 -38 -35 5 -4 17 -11 30 -16 30 -5 0 -9 -2 -9 -5z"/>
<path d="M11710 2535 c0 -8 -9 -15 -19 -15 -11 0 -22 -8 -26 -19 -6 -21 3 -51
16 -51 5 0 4 9 -3 20 -9 15 -10 22 -1 31 16 16 36 1 30 -22 -3 -10 -1 -22 4
-25 5 -3 9 18 9 45 0 28 -2 51 -5 51 -3 0 -5 -7 -5 -15z"/>
<path d="M11783 2500 c-1 -39 1 -47 6 -26 8 39 28 44 34 9 4 -26 4 -25 6 6 1
28 -2 33 -18 28 -15 -3 -21 1 -24 17 -2 11 -4 -4 -4 -34z"/>
<path d="M11082 2528 c-29 -29 -3 -84 35 -76 25 5 31 48 6 48 -15 0 -16 -2 -3
-10 20 -12 -2 -35 -25 -26 -26 10 -15 59 15 67 21 6 22 7 5 8 -12 1 -26 -4
-33 -11z"/>
<path d="M11239 2529 c-2 -27 3 -64 9 -71 4 -4 6 11 5 33 -1 39 -12 67 -14 38z"/>
<path d="M11379 2529 c-2 -27 3 -64 9 -71 4 -4 6 11 5 33 -1 39 -12 67 -14 38z"/>
<path d="M11549 2529 c-2 -27 3 -64 9 -71 4 -4 6 11 5 33 -1 39 -12 67 -14 38z"/>
<path d="M11170 2504 c-15 -17 -4 -45 21 -52 8 -2 5 3 -6 12 -20 15 -20 15 3
16 16 0 22 5 20 17 -4 23 -23 27 -38 7z m30 -4 c0 -5 -7 -10 -16 -10 -8 0 -12
5 -9 10 3 6 10 10 16 10 5 0 9 -4 9 -10z"/>
<path d="M11320 2507 c0 -16 20 -37 35 -37 5 0 1 7 -10 16 -17 13 -18 16 -5
24 13 8 12 10 -2 10 -10 0 -18 -6 -18 -13z"/>
<path d="M11443 2514 c20 -6 23 -24 5 -24 -9 0 -10 -3 -2 -8 6 -4 14 -14 17
-22 4 -8 5 1 4 20 -1 27 -7 35 -22 37 -16 1 -16 1 -2 -3z"/>
<path d="M11495 2510 c-3 -5 -1 -10 4 -10 6 0 11 5 11 10 0 6 -2 10 -4 10 -3
0 -8 -4 -11 -10z"/>
<path d="M11600 2504 c-15 -17 -4 -45 21 -52 8 -2 5 3 -6 12 -20 15 -20 15 3
16 16 0 22 5 20 17 -4 23 -23 27 -38 7z m30 -4 c0 -5 -7 -10 -16 -10 -8 0 -12
5 -9 10 3 6 10 10 16 10 5 0 9 -4 9 -10z"/>
<path d="M11864 2506 c-9 -23 0 -51 16 -52 9 0 10 1 3 3 -21 7 -15 23 8 23 14
0 19 5 17 17 -4 23 -36 29 -44 9z m36 -6 c0 -5 -7 -10 -15 -10 -8 0 -15 5 -15
10 0 6 7 10 15 10 8 0 15 -4 15 -10z"/>
<path d="M11933 2485 c0 -22 2 -30 4 -17 2 12 2 30 0 40 -3 9 -5 -1 -4 -23z"/>
<path d="M11984 2506 c-9 -23 0 -51 16 -52 9 0 10 1 3 3 -21 7 -15 23 8 23 14
0 19 5 17 17 -4 23 -36 29 -44 9z m36 -6 c0 -5 -7 -10 -15 -10 -8 0 -15 5 -15
10 0 6 7 10 15 10 8 0 15 -4 15 -10z"/>
<path d="M11420 2471 c0 -10 19 -25 25 -20 1 2 -3 10 -11 17 -8 7 -14 8 -14 3z"/>
<path d="M11290 1870 l0 -70 60 0 60 0 0 70 0 70 -60 0 -60 0 0 -70z"/>
<path d="M11540 1690 l0 -70 58 0 c32 0 61 2 63 4 2 2 2 34 1 70 l-4 66 -59 0
-59 0 0 -70z"/>
<path d="M11070 1687 c-23 -37 -23 -37 -11 -56 8 -12 12 -11 27 3 18 18 63 18
122 0 19 -5 22 -3 22 19 0 32 -31 52 -93 60 -46 6 -48 5 -67 -26z"/>
<path d="M11913 1655 c-31 -31 -34 -39 -31 -82 2 -34 7 -48 18 -49 8 -1 17 -3
20 -4 3 -1 35 -3 73 -5 49 -2 71 1 82 12 32 32 6 122 -44 147 -48 25 -79 20
-118 -19z"/>
<path d="M11049 1480 c-19 -10 -41 -26 -48 -34 -8 -9 -26 -16 -42 -16 l-29 0
0 -124 c0 -73 -4 -127 -10 -131 -33 -20 9 -25 224 -25 214 0 267 6 236 25 -6
4 -10 57 -10 131 l0 124 -39 0 c-22 0 -41 5 -44 13 -2 7 -25 22 -49 35 -57 28
-138 29 -189 2z m125 -136 c17 -17 20 -25 9 -22 -5 0 -16 -2 -27 -7 -22 -10
-40 13 -24 32 14 17 23 16 42 -3z"/>
<path d="M11890 1483 c-33 -6 -50 -21 -50 -44 0 -15 -7 -19 -35 -19 l-35 0 0
-119 c0 -99 -3 -120 -16 -125 -8 -3 -12 -10 -9 -16 4 -6 92 -10 236 -10 197 0
229 2 229 15 0 8 -4 15 -10 15 -5 0 -10 14 -10 30 0 26 4 30 26 30 14 0 35 -5
46 -11 16 -9 24 -8 36 5 22 21 -1 48 -34 40 -13 -3 -35 -3 -49 0 -24 6 -25 10
-25 76 l0 70 -33 0 c-26 0 -36 6 -45 24 -17 37 -127 56 -222 39z m116 -158 c1
-14 -6 -20 -22 -21 -23 -2 -39 20 -28 37 11 18 49 5 50 -16z"/>
<path d="M4766 2411 c-3 -4 6 -6 19 -3 14 2 25 6 25 8 0 8 -39 4 -44 -5z"/>
<path d="M4762 2370 c0 -14 2 -19 5 -12 2 6 2 18 0 25 -3 6 -5 1 -5 -13z"/>
<path d="M4403 2343 c9 -2 25 -2 35 0 9 3 1 5 -18 5 -19 0 -27 -2 -17 -5z"/>
<path d="M4732 2137 c-49 -18 -100 -63 -123 -109 -32 -62 -24 -152 18 -210 43
-59 92 -83 174 -83 55 0 72 5 107 27 55 37 93 103 94 165 2 70 -17 116 -66
161 -63 58 -133 74 -204 49z m148 -39 c125 -64 132 -234 13 -314 -95 -64 -226
-19 -269 91 -32 85 6 183 88 224 55 27 112 27 168 -1z"/>
<path d="M4682 2028 c-16 -16 -16 -140 0 -156 8 -8 48 -12 113 -12 65 0 105 4
113 12 7 7 12 40 12 78 0 38 -5 71 -12 78 -8 8 -48 12 -113 12 -65 0 -105 -4
-113 -12z m208 -78 l0 -60 -95 0 -95 0 0 60 0 60 95 0 95 0 0 -60z"/>
<path d="M4750 1840 c0 -5 20 -10 45 -10 25 0 45 5 45 10 0 6 -20 10 -45 10
-25 0 -45 -4 -45 -10z"/>
<path d="M4551 1664 c0 -11 3 -14 6 -6 3 7 2 16 -1 19 -3 4 -6 -2 -5 -13z"/>
<path d="M4580 1670 c0 -5 5 -10 11 -10 5 0 7 5 4 10 -3 6 -8 10 -11 10 -2 0
-4 -4 -4 -10z"/>
<path d="M4842 1645 c0 -16 2 -22 5 -12 2 9 2 23 0 30 -3 6 -5 -1 -5 -18z"/>
<path d="M4970 1650 c0 -11 2 -20 4 -20 2 0 6 9 9 20 3 11 1 20 -4 20 -5 0 -9
-9 -9 -20z"/>
<path d="M4702 1640 c0 -14 2 -19 5 -12 2 6 2 18 0 25 -3 6 -5 1 -5 -13z"/>
<path d="M4740 1646 c0 -2 7 -9 15 -16 13 -11 14 -10 9 4 -5 14 -24 23 -24 12z"/>
<path d="M4560 1630 c0 -5 5 -10 11 -10 5 0 7 5 4 10 -3 6 -8 10 -11 10 -2 0
-4 -4 -4 -10z"/>
<path d="M4605 1630 c-3 -5 -1 -10 4 -10 6 0 11 5 11 10 0 6 -2 10 -4 10 -3 0
-8 -4 -11 -10z"/>
<path d="M4660 1620 c-9 -6 -10 -10 -3 -10 6 0 15 5 18 10 8 12 4 12 -15 0z"/>
<path d="M4868 1003 c7 -3 16 -2 19 1 4 3 -2 6 -13 5 -11 0 -14 -3 -6 -6z"/>
<path d="M5047 1003 c-10 -10 -8 -23 4 -23 5 0 8 4 5 9 -4 5 0 12 6 14 7 3 8
6 2 6 -6 1 -14 -2 -17 -6z"/>
<path d="M4900 4314 c0 -34 4 -53 10 -49 6 3 10 28 10 56 0 27 -4 49 -10 49
-5 0 -10 -25 -10 -56z"/>
<path d="M5418 4313 c6 -2 18 -2 25 0 6 3 1 5 -13 5 -14 0 -19 -2 -12 -5z"/>
<path d="M5828 4293 c7 -3 16 -2 19 1 4 3 -2 6 -13 5 -11 0 -14 -3 -6 -6z"/>
<path d="M6148 4293 c7 -3 16 -2 19 1 4 3 -2 6 -13 5 -11 0 -14 -3 -6 -6z"/>
<path d="M6198 4293 c7 -3 16 -2 19 1 4 3 -2 6 -13 5 -11 0 -14 -3 -6 -6z"/>
<path d="M6348 4293 c7 -3 16 -2 19 1 4 3 -2 6 -13 5 -11 0 -14 -3 -6 -6z"/>
<path d="M6418 4293 c7 -3 16 -2 19 1 4 3 -2 6 -13 5 -11 0 -14 -3 -6 -6z"/>
<path d="M6728 4293 c7 -3 16 -2 19 1 4 3 -2 6 -13 5 -11 0 -14 -3 -6 -6z"/>
<path d="M7178 4293 c7 -3 16 -2 19 1 4 3 -2 6 -13 5 -11 0 -14 -3 -6 -6z"/>
<path d="M7520 4295 c0 -8 29 -12 39 -5 9 5 4 8 -13 8 -14 0 -26 -2 -26 -3z"/>
<path d="M7898 4293 c7 -3 16 -2 19 1 4 3 -2 6 -13 5 -11 0 -14 -3 -6 -6z"/>
<path d="M7968 4293 c7 -3 16 -2 19 1 4 3 -2 6 -13 5 -11 0 -14 -3 -6 -6z"/>
<path d="M8188 4293 c7 -3 16 -2 19 1 4 3 -2 6 -13 5 -11 0 -14 -3 -6 -6z"/>
<path d="M8238 4293 c7 -3 16 -2 19 1 4 3 -2 6 -13 5 -11 0 -14 -3 -6 -6z"/>
<path d="M8318 4293 c7 -3 16 -2 19 1 4 3 -2 6 -13 5 -11 0 -14 -3 -6 -6z"/>
<path d="M3220 4271 c-133 -43 -195 -169 -141 -286 61 -133 243 -167 338 -64
67 73 77 171 28 255 -43 73 -152 119 -225 95z m159 -58 c102 -82 93 -236 -17
-300 -188 -110 -377 137 -219 288 61 58 170 64 236 12z"/>
<path d="M3156 4154 c-11 -10 -16 -34 -16 -74 0 -84 9 -90 129 -90 62 0 101 4
109 12 7 7 12 40 12 78 0 38 -5 71 -12 78 -19 19 -202 16 -222 -4z m214 -74
l0 -60 -100 0 -100 0 0 60 0 60 100 0 100 0 0 -60z"/>
<path d="M3220 3970 c0 -5 20 -10 45 -10 25 0 45 5 45 10 0 6 -20 10 -45 10
-25 0 -45 -4 -45 -10z"/>
<path d="M5518 4273 c6 -2 18 -2 25 0 6 3 1 5 -13 5 -14 0 -19 -2 -12 -5z"/>
<path d="M5598 4273 c6 -2 18 -2 25 0 6 3 1 5 -13 5 -14 0 -19 -2 -12 -5z"/>
<path d="M5678 4273 c7 -3 16 -2 19 1 4 3 -2 6 -13 5 -11 0 -14 -3 -6 -6z"/>
<path d="M5748 4273 c6 -2 18 -2 25 0 6 3 1 5 -13 5 -14 0 -19 -2 -12 -5z"/>
<path d="M5908 4273 c7 -3 16 -2 19 1 4 3 -2 6 -13 5 -11 0 -14 -3 -6 -6z"/>
<path d="M6198 4273 c7 -3 16 -2 19 1 4 3 -2 6 -13 5 -11 0 -14 -3 -6 -6z"/>
<path d="M6528 4273 c7 -3 16 -2 19 1 4 3 -2 6 -13 5 -11 0 -14 -3 -6 -6z"/>
<path d="M6728 4273 c7 -3 16 -2 19 1 4 3 -2 6 -13 5 -11 0 -14 -3 -6 -6z"/>
<path d="M7178 4273 c7 -3 16 -2 19 1 4 3 -2 6 -13 5 -11 0 -14 -3 -6 -6z"/>
<path d="M7468 4273 c6 -2 18 -2 25 0 6 3 1 5 -13 5 -14 0 -19 -2 -12 -5z"/>
<path d="M7628 4273 c7 -3 16 -2 19 1 4 3 -2 6 -13 5 -11 0 -14 -3 -6 -6z"/>
<path d="M7698 4273 c6 -2 18 -2 25 0 6 3 1 5 -13 5 -14 0 -19 -2 -12 -5z"/>
<path d="M7968 4273 c7 -3 16 -2 19 1 4 3 -2 6 -13 5 -11 0 -14 -3 -6 -6z"/>
<path d="M8068 4273 c6 -2 18 -2 25 0 6 3 1 5 -13 5 -14 0 -19 -2 -12 -5z"/>
<path d="M8188 4273 c7 -3 16 -2 19 1 4 3 -2 6 -13 5 -11 0 -14 -3 -6 -6z"/>
<path d="M8478 4273 c6 -2 18 -2 25 0 6 3 1 5 -13 5 -14 0 -19 -2 -12 -5z"/>
<path d="M8688 4273 c6 -2 18 -2 25 0 6 3 1 5 -13 5 -14 0 -19 -2 -12 -5z"/>
<path d="M5528 4253 c7 -3 16 -2 19 1 4 3 -2 6 -13 5 -11 0 -14 -3 -6 -6z"/>
<path d="M5608 4253 c7 -3 16 -2 19 1 4 3 -2 6 -13 5 -11 0 -14 -3 -6 -6z"/>
<path d="M5758 4253 c7 -3 16 -2 19 1 4 3 -2 6 -13 5 -11 0 -14 -3 -6 -6z"/>
<path d="M6148 4253 c7 -3 16 -2 19 1 4 3 -2 6 -13 5 -11 0 -14 -3 -6 -6z"/>
<path d="M6198 4253 c7 -3 16 -2 19 1 4 3 -2 6 -13 5 -11 0 -14 -3 -6 -6z"/>
<path d="M6728 4253 c7 -3 16 -2 19 1 4 3 -2 6 -13 5 -11 0 -14 -3 -6 -6z"/>
<path d="M6838 4253 c7 -3 16 -2 19 1 4 3 -2 6 -13 5 -11 0 -14 -3 -6 -6z"/>
<path d="M6938 4253 c7 -3 16 -2 19 1 4 3 -2 6 -13 5 -11 0 -14 -3 -6 -6z"/>
<path d="M7478 4253 c7 -3 16 -2 19 1 4 3 -2 6 -13 5 -11 0 -14 -3 -6 -6z"/>
<path d="M7708 4253 c7 -3 16 -2 19 1 4 3 -2 6 -13 5 -11 0 -14 -3 -6 -6z"/>
<path d="M7968 4253 c7 -3 16 -2 19 1 4 3 -2 6 -13 5 -11 0 -14 -3 -6 -6z"/>
<path d="M8188 4253 c7 -3 16 -2 19 1 4 3 -2 6 -13 5 -11 0 -14 -3 -6 -6z"/>
<path d="M8318 4253 c7 -3 16 -2 19 1 4 3 -2 6 -13 5 -11 0 -14 -3 -6 -6z"/>
<path d="M8488 4253 c7 -3 16 -2 19 1 4 3 -2 6 -13 5 -11 0 -14 -3 -6 -6z"/>
<path d="M8698 4253 c7 -3 16 -2 19 1 4 3 -2 6 -13 5 -11 0 -14 -3 -6 -6z"/>
<path d="M4900 4161 c0 -28 5 -51 10 -51 6 0 10 20 10 44 0 25 -4 48 -10 51
-6 4 -10 -13 -10 -44z"/>
<path d="M5698 4143 c7 -3 16 -2 19 1 4 3 -2 6 -13 5 -11 0 -14 -3 -6 -6z"/>
<path d="M5808 4143 c7 -3 16 -2 19 1 4 3 -2 6 -13 5 -11 0 -14 -3 -6 -6z"/>
<path d="M5858 4143 c7 -3 16 -2 19 1 4 3 -2 6 -13 5 -11 0 -14 -3 -6 -6z"/>
<path d="M5968 4143 c7 -3 16 -2 19 1 4 3 -2 6 -13 5 -11 0 -14 -3 -6 -6z"/>
<path d="M6018 4143 c7 -3 16 -2 19 1 4 3 -2 6 -13 5 -11 0 -14 -3 -6 -6z"/>
<path d="M6298 4143 c7 -3 16 -2 19 1 4 3 -2 6 -13 5 -11 0 -14 -3 -6 -6z"/>
<path d="M6338 4143 c7 -3 16 -2 19 1 4 3 -2 6 -13 5 -11 0 -14 -3 -6 -6z"/>
<path d="M6388 4143 c7 -3 16 -2 19 1 4 3 -2 6 -13 5 -11 0 -14 -3 -6 -6z"/>
<path d="M6598 4143 c7 -3 16 -2 19 1 4 3 -2 6 -13 5 -11 0 -14 -3 -6 -6z"/>
<path d="M6650 4145 c0 -8 29 -12 39 -5 9 5 4 8 -13 8 -14 0 -26 -2 -26 -3z"/>
<path d="M6728 4143 c7 -3 16 -2 19 1 4 3 -2 6 -13 5 -11 0 -14 -3 -6 -6z"/>
<path d="M6808 4143 c7 -3 16 -2 19 1 4 3 -2 6 -13 5 -11 0 -14 -3 -6 -6z"/>
<path d="M6948 4143 c7 -3 16 -2 19 1 4 3 -2 6 -13 5 -11 0 -14 -3 -6 -6z"/>
<path d="M6988 4143 c7 -3 16 -2 19 1 4 3 -2 6 -13 5 -11 0 -14 -3 -6 -6z"/>
<path d="M7068 4143 c7 -3 16 -2 19 1 4 3 -2 6 -13 5 -11 0 -14 -3 -6 -6z"/>
<path d="M7348 4143 c7 -3 16 -2 19 1 4 3 -2 6 -13 5 -11 0 -14 -3 -6 -6z"/>
<path d="M7470 4145 c0 -8 29 -12 39 -5 9 5 4 8 -13 8 -14 0 -26 -2 -26 -3z"/>
<path d="M7548 4143 c7 -3 16 -2 19 1 4 3 -2 6 -13 5 -11 0 -14 -3 -6 -6z"/>
<path d="M7718 4143 c7 -3 16 -2 19 1 4 3 -2 6 -13 5 -11 0 -14 -3 -6 -6z"/>
<path d="M7768 4143 c7 -3 16 -2 19 1 4 3 -2 6 -13 5 -11 0 -14 -3 -6 -6z"/>
<path d="M7978 4143 c7 -3 16 -2 19 1 4 3 -2 6 -13 5 -11 0 -14 -3 -6 -6z"/>
<path d="M8100 4145 c0 -8 29 -12 39 -5 9 5 4 8 -13 8 -14 0 -26 -2 -26 -3z"/>
<path d="M8188 4143 c7 -3 16 -2 19 1 4 3 -2 6 -13 5 -11 0 -14 -3 -6 -6z"/>
<path d="M8238 4143 c7 -3 16 -2 19 1 4 3 -2 6 -13 5 -11 0 -14 -3 -6 -6z"/>
<path d="M8448 4143 c7 -3 16 -2 19 1 4 3 -2 6 -13 5 -11 0 -14 -3 -6 -6z"/>
<path d="M8488 4143 c7 -3 16 -2 19 1 4 3 -2 6 -13 5 -11 0 -14 -3 -6 -6z"/>
<path d="M8538 4143 c7 -3 16 -2 19 1 4 3 -2 6 -13 5 -11 0 -14 -3 -6 -6z"/>
<path d="M8588 4143 c7 -3 16 -2 19 1 4 3 -2 6 -13 5 -11 0 -14 -3 -6 -6z"/>
<path d="M5858 4123 c7 -3 16 -2 19 1 4 3 -2 6 -13 5 -11 0 -14 -3 -6 -6z"/>
<path d="M6218 4123 c6 -2 18 -2 25 0 6 3 1 5 -13 5 -14 0 -19 -2 -12 -5z"/>
<path d="M6338 4123 c7 -3 16 -2 19 1 4 3 -2 6 -13 5 -11 0 -14 -3 -6 -6z"/>
<path d="M6468 4123 c7 -3 16 -2 19 1 4 3 -2 6 -13 5 -11 0 -14 -3 -6 -6z"/>
<path d="M6918 4123 c7 -3 16 -2 19 1 4 3 -2 6 -13 5 -11 0 -14 -3 -6 -6z"/>
<path d="M6988 4123 c7 -3 16 -2 19 1 4 3 -2 6 -13 5 -11 0 -14 -3 -6 -6z"/>
<path d="M7178 4123 c7 -3 16 -2 19 1 4 3 -2 6 -13 5 -11 0 -14 -3 -6 -6z"/>
<path d="M7288 4123 c6 -2 18 -2 25 0 6 3 1 5 -13 5 -14 0 -19 -2 -12 -5z"/>
<path d="M7418 4123 c6 -2 18 -2 25 0 6 3 1 5 -13 5 -14 0 -19 -2 -12 -5z"/>
<path d="M7718 4123 c7 -3 16 -2 19 1 4 3 -2 6 -13 5 -11 0 -14 -3 -6 -6z"/>
<path d="M7768 4123 c7 -3 16 -2 19 1 4 3 -2 6 -13 5 -11 0 -14 -3 -6 -6z"/>
<path d="M7878 4123 c7 -3 16 -2 19 1 4 3 -2 6 -13 5 -11 0 -14 -3 -6 -6z"/>
<path d="M8048 4123 c6 -2 18 -2 25 0 6 3 1 5 -13 5 -14 0 -19 -2 -12 -5z"/>
<path d="M8348 4123 c6 -2 18 -2 25 0 6 3 1 5 -13 5 -14 0 -19 -2 -12 -5z"/>
<path d="M8538 4123 c7 -3 16 -2 19 1 4 3 -2 6 -13 5 -11 0 -14 -3 -6 -6z"/>
<path d="M5598 4103 c7 -3 16 -2 19 1 4 3 -2 6 -13 5 -11 0 -14 -3 -6 -6z"/>
<path d="M5858 4103 c7 -3 16 -2 19 1 4 3 -2 6 -13 5 -11 0 -14 -3 -6 -6z"/>
<path d="M6018 4103 c7 -3 16 -2 19 1 4 3 -2 6 -13 5 -11 0 -14 -3 -6 -6z"/>
<path d="M6228 4103 c7 -3 16 -2 19 1 4 3 -2 6 -13 5 -11 0 -14 -3 -6 -6z"/>
<path d="M6598 4103 c7 -3 16 -2 19 1 4 3 -2 6 -13 5 -11 0 -14 -3 -6 -6z"/>
<path d="M6808 4103 c7 -3 16 -2 19 1 4 3 -2 6 -13 5 -11 0 -14 -3 -6 -6z"/>
<path d="M6858 4103 c7 -3 16 -2 19 1 4 3 -2 6 -13 5 -11 0 -14 -3 -6 -6z"/>
<path d="M6988 4103 c7 -3 16 -2 19 1 4 3 -2 6 -13 5 -11 0 -14 -3 -6 -6z"/>
<path d="M7298 4103 c7 -3 16 -2 19 1 4 3 -2 6 -13 5 -11 0 -14 -3 -6 -6z"/>
<path d="M7428 4103 c7 -3 16 -2 19 1 4 3 -2 6 -13 5 -11 0 -14 -3 -6 -6z"/>
<path d="M7548 4103 c7 -3 16 -2 19 1 4 3 -2 6 -13 5 -11 0 -14 -3 -6 -6z"/>
<path d="M7718 4103 c7 -3 16 -2 19 1 4 3 -2 6 -13 5 -11 0 -14 -3 -6 -6z"/>
<path d="M7768 4103 c7 -3 16 -2 19 1 4 3 -2 6 -13 5 -11 0 -14 -3 -6 -6z"/>
<path d="M8058 4103 c7 -3 16 -2 19 1 4 3 -2 6 -13 5 -11 0 -14 -3 -6 -6z"/>
<path d="M8238 4103 c7 -3 16 -2 19 1 4 3 -2 6 -13 5 -11 0 -14 -3 -6 -6z"/>
<path d="M8358 4103 c7 -3 16 -2 19 1 4 3 -2 6 -13 5 -11 0 -14 -3 -6 -6z"/>
<path d="M8538 4103 c7 -3 16 -2 19 1 4 3 -2 6 -13 5 -11 0 -14 -3 -6 -6z"/>
<path d="M6058 4003 c7 -3 16 -2 19 1 4 3 -2 6 -13 5 -11 0 -14 -3 -6 -6z"/>
<path d="M6608 4003 c7 -3 16 -2 19 1 4 3 -2 6 -13 5 -11 0 -14 -3 -6 -6z"/>
<path d="M6748 4003 c7 -3 16 -2 19 1 4 3 -2 6 -13 5 -11 0 -14 -3 -6 -6z"/>
<path d="M6798 4003 c7 -3 16 -2 19 1 4 3 -2 6 -13 5 -11 0 -14 -3 -6 -6z"/>
<path d="M6988 4003 c7 -3 16 -2 19 1 4 3 -2 6 -13 5 -11 0 -14 -3 -6 -6z"/>
<path d="M7318 4003 c7 -3 16 -2 19 1 4 3 -2 6 -13 5 -11 0 -14 -3 -6 -6z"/>
<path d="M7363 4003 c9 -2 23 -2 30 0 6 3 -1 5 -18 5 -16 0 -22 -2 -12 -5z"/>
<path d="M7478 4003 c7 -3 16 -2 19 1 4 3 -2 6 -13 5 -11 0 -14 -3 -6 -6z"/>
<path d="M7558 4003 c7 -3 16 -2 19 1 4 3 -2 6 -13 5 -11 0 -14 -3 -6 -6z"/>
<path d="M7878 4003 c7 -3 16 -2 19 1 4 3 -2 6 -13 5 -11 0 -14 -3 -6 -6z"/>
<path d="M7998 4003 c7 -3 16 -2 19 1 4 3 -2 6 -13 5 -11 0 -14 -3 -6 -6z"/>
<path d="M8068 4003 c7 -3 16 -2 19 1 4 3 -2 6 -13 5 -11 0 -14 -3 -6 -6z"/>
<path d="M8118 4003 c7 -3 16 -2 19 1 4 3 -2 6 -13 5 -11 0 -14 -3 -6 -6z"/>
<path d="M8278 4003 c7 -3 16 -2 19 1 4 3 -2 6 -13 5 -11 0 -14 -3 -6 -6z"/>
<path d="M8328 4003 c7 -3 16 -2 19 1 4 3 -2 6 -13 5 -11 0 -14 -3 -6 -6z"/>
<path d="M6288 3983 c6 -2 18 -2 25 0 6 3 1 5 -13 5 -14 0 -19 -2 -12 -5z"/>
<path d="M6478 3983 c6 -2 18 -2 25 0 6 3 1 5 -13 5 -14 0 -19 -2 -12 -5z"/>
<path d="M6608 3983 c7 -3 16 -2 19 1 4 3 -2 6 -13 5 -11 0 -14 -3 -6 -6z"/>
<path d="M6798 3983 c7 -3 16 -2 19 1 4 3 -2 6 -13 5 -11 0 -14 -3 -6 -6z"/>
<path d="M6918 3983 c7 -3 16 -2 19 1 4 3 -2 6 -13 5 -11 0 -14 -3 -6 -6z"/>
<path d="M6988 3983 c7 -3 16 -2 19 1 4 3 -2 6 -13 5 -11 0 -14 -3 -6 -6z"/>
<path d="M7238 3983 c6 -2 18 -2 25 0 6 3 1 5 -13 5 -14 0 -19 -2 -12 -5z"/>
<path d="M7478 3983 c7 -3 16 -2 19 1 4 3 -2 6 -13 5 -11 0 -14 -3 -6 -6z"/>
<path d="M8398 3983 c6 -2 18 -2 25 0 6 3 1 5 -13 5 -14 0 -19 -2 -12 -5z"/>
<path d="M6108 3963 c7 -3 16 -2 19 1 4 3 -2 6 -13 5 -11 0 -14 -3 -6 -6z"/>
<path d="M6158 3963 c7 -3 16 -2 19 1 4 3 -2 6 -13 5 -11 0 -14 -3 -6 -6z"/>
<path d="M6298 3963 c7 -3 16 -2 19 1 4 3 -2 6 -13 5 -11 0 -14 -3 -6 -6z"/>
<path d="M6488 3963 c7 -3 16 -2 19 1 4 3 -2 6 -13 5 -11 0 -14 -3 -6 -6z"/>
<path d="M6608 3963 c7 -3 16 -2 19 1 4 3 -2 6 -13 5 -11 0 -14 -3 -6 -6z"/>
<path d="M6798 3963 c7 -3 16 -2 19 1 4 3 -2 6 -13 5 -11 0 -14 -3 -6 -6z"/>
<path d="M6988 3963 c7 -3 16 -2 19 1 4 3 -2 6 -13 5 -11 0 -14 -3 -6 -6z"/>
<path d="M7248 3963 c7 -3 16 -2 19 1 4 3 -2 6 -13 5 -11 0 -14 -3 -6 -6z"/>
<path d="M7318 3963 c7 -3 16 -2 19 1 4 3 -2 6 -13 5 -11 0 -14 -3 -6 -6z"/>
<path d="M7438 3963 c7 -3 16 -2 19 1 4 3 -2 6 -13 5 -11 0 -14 -3 -6 -6z"/>
<path d="M7478 3963 c7 -3 16 -2 19 1 4 3 -2 6 -13 5 -11 0 -14 -3 -6 -6z"/>
<path d="M7558 3963 c7 -3 16 -2 19 1 4 3 -2 6 -13 5 -11 0 -14 -3 -6 -6z"/>
<path d="M7928 3963 c7 -3 16 -2 19 1 4 3 -2 6 -13 5 -11 0 -14 -3 -6 -6z"/>
<path d="M8068 3963 c7 -3 16 -2 19 1 4 3 -2 6 -13 5 -11 0 -14 -3 -6 -6z"/>
<path d="M8278 3963 c7 -3 16 -2 19 1 4 3 -2 6 -13 5 -11 0 -14 -3 -6 -6z"/>
<path d="M8408 3963 c7 -3 16 -2 19 1 4 3 -2 6 -13 5 -11 0 -14 -3 -6 -6z"/>
<path d="M7928 3943 c7 -3 16 -2 19 1 4 3 -2 6 -13 5 -11 0 -14 -3 -6 -6z"/>
<path d="M2944 3795 c15 -64 19 -75 26 -75 9 0 20 26 19 43 0 7 -4 3 -9 -8
l-8 -20 -7 20 c-4 11 -11 29 -16 40 l-9 20 4 -20z"/>
<path d="M2990 3795 c0 -8 5 -15 10 -15 6 0 10 7 10 15 0 8 -4 15 -10 15 -5 0
-10 -7 -10 -15z"/>
<path d="M3047 3803 c-2 -5 -8 -21 -12 -38 -7 -27 -8 -28 -15 -10 -6 13 -9 15
-9 5 -1 -17 16 -47 22 -40 6 7 26 90 22 90 -2 0 -6 -3 -8 -7z"/>
<path d="M3192 3765 c-1 -33 1 -45 7 -36 8 13 12 13 28 0 16 -13 17 -12 5 3
-11 13 -11 21 -1 40 12 23 12 23 -9 5 -20 -18 -21 -18 -25 10 -2 17 -5 8 -5
-22z"/>
<path d="M3320 3767 c0 -26 5 -47 10 -47 7 0 9 16 6 41 -7 58 -16 61 -16 6z"/>
<path d="M3443 3765 c0 -27 2 -38 4 -22 2 15 2 37 0 50 -2 12 -4 0 -4 -28z"/>
<path d="M3507 3793 c-6 -11 4 -73 12 -73 7 0 6 68 -2 76 -3 3 -7 2 -10 -3z"/>
<path d="M3083 3783 c-7 -2 -13 -9 -13 -15 0 -7 4 -7 13 1 17 13 38 -5 30 -25
-6 -17 -30 -18 -36 -1 -4 9 -6 9 -6 -1 -1 -20 29 -26 46 -10 12 12 13 20 4 37
-12 21 -17 23 -38 14z"/>
<path d="M3280 3781 c13 -9 12 -13 -8 -26 -12 -9 -20 -21 -17 -26 10 -15 25
-10 19 6 -4 8 -1 15 4 15 6 0 13 -8 16 -17 2 -10 4 -3 3 16 -1 21 -8 36 -17
38 -13 4 -13 3 0 -6z"/>
<path d="M3358 3779 c15 -16 16 -45 2 -52 -6 -3 -5 -4 2 -3 18 4 16 58 -2 64
-12 4 -13 2 -2 -9z"/>
<path d="M3473 3755 c0 -22 2 -30 4 -17 2 12 2 30 0 40 -3 9 -5 -1 -4 -23z"/>
<path d="M3540 3785 c0 -5 5 -17 10 -25 5 -8 10 -10 10 -5 0 6 -5 17 -10 25
-5 8 -10 11 -10 5z"/>
<path d="M3140 3748 c0 -36 4 -35 14 5 4 16 2 27 -4 27 -5 0 -10 -14 -10 -32z"/>
<path d="M3402 3750 c0 -19 2 -27 5 -17 2 9 2 25 0 35 -3 9 -5 1 -5 -18z"/>
<path d="M3553 3715 c-13 -29 1 -34 17 -6 12 23 13 31 3 31 -5 0 -13 -11 -20
-25z"/>
<path d="M3040 3280 c0 -11 2 -20 4 -20 2 0 6 9 9 20 3 11 1 20 -4 20 -5 0 -9
-9 -9 -20z"/>
<path d="M3258 3275 c2 -14 6 -25 7 -25 1 0 5 11 7 25 3 16 1 25 -7 25 -8 0
-10 -9 -7 -25z"/>
<path d="M3522 3270 c0 -14 2 -19 5 -12 2 6 2 18 0 25 -3 6 -5 1 -5 -13z"/>
<path d="M2956 3273 c5 -5 12 -12 16 -18 4 -6 8 -2 8 8 0 9 -7 17 -17 17 -9 0
-12 -3 -7 -7z"/>
<path d="M2998 3273 c6 -2 18 -2 25 0 6 3 1 5 -13 5 -14 0 -19 -2 -12 -5z"/>
<path d="M3298 3273 c6 -2 18 -2 25 0 6 3 1 5 -13 5 -14 0 -19 -2 -12 -5z"/>
<path d="M3451 3264 c0 -11 3 -14 6 -6 3 7 2 16 -1 19 -3 4 -6 -2 -5 -13z"/>
<path d="M3470 3271 c0 -5 9 -7 20 -4 11 3 20 7 20 9 0 2 -9 4 -20 4 -11 0
-20 -4 -20 -9z"/>
<path d="M3558 3273 c6 -2 18 -2 25 0 6 3 1 5 -13 5 -14 0 -19 -2 -12 -5z"/>
<path d="M3050 2786 l0 -56 51 0 50 0 -3 53 -3 52 -47 3 -48 3 0 -55z"/>
<path d="M6297 2733 c-3 -5 -8 -68 -12 -140 l-7 -133 338 -1 c187 0 386 -1
444 0 58 0 297 0 531 0 l427 1 4 30 c3 17 0 80 -5 140 l-10 110 -853 0 c-469
0 -855 -3 -857 -7z"/>
<path d="M3250 2646 l0 -56 51 0 50 0 -3 53 -3 52 -47 3 -48 3 0 -55z"/>
<path d="M2873 2637 c-14 -29 -4 -50 17 -37 20 13 67 12 91 0 16 -9 19 -7 19
13 0 34 -19 47 -70 47 -39 0 -49 -4 -57 -23z"/>
<path d="M3546 2619 c-21 -16 -26 -29 -26 -63 0 -40 2 -43 28 -44 15 -1 34 -3
42 -4 8 0 32 0 53 0 36 2 37 3 37 42 0 77 -75 116 -134 69z"/>
<path d="M2846 2465 c-20 -14 -46 -25 -56 -25 -18 0 -20 -7 -20 -96 0 -68 -4
-99 -14 -109 -9 -9 -43 -15 -97 -18 -46 -1 229 -3 611 -3 382 0 655 2 606 3
-94 4 -116 12 -116 45 0 17 6 19 42 16 34 -2 44 1 46 14 3 13 -6 17 -40 20
l-43 3 -3 58 c-3 56 -4 57 -32 57 -20 0 -30 5 -30 15 0 22 -42 35 -108 35 -74
0 -100 -8 -107 -31 -4 -12 -16 -19 -31 -19 -24 0 -24 -1 -24 -91 0 -65 -4 -94
-14 -105 -21 -20 -271 -20 -292 0 -10 11 -14 41 -14 110 0 95 0 96 -25 96 -13
0 -41 11 -61 25 -28 19 -50 25 -89 25 -39 0 -61 -6 -89 -25z m117 -99 c7 -17
-22 -31 -36 -17 -5 5 -6 14 -3 20 10 16 33 14 39 -3z m657 -6 c0 -4 -6 -13
-14 -19 -18 -15 -41 10 -25 26 12 12 39 7 39 -7z"/>
<path d="M5963 1345 c6 -16 190 -33 497 -44 190 -7 524 -7 1000 -1 692 9 870
17 870 43 0 5 -14 7 -32 3 -76 -14 -443 -26 -1018 -32 -506 -5 -667 -3 -905
11 -159 9 -318 19 -353 23 -42 5 -61 4 -59 -3z"/>
<path d="M4070 1336 c0 -2 9 -6 20 -9 11 -3 18 -1 14 4 -5 9 -34 13 -34 5z"/>
<path d="M4190 1329 c0 -5 5 -7 10 -4 6 3 10 8 10 11 0 2 -4 4 -10 4 -5 0 -10
-5 -10 -11z"/>
<path d="M8300 442 c50 -14 346 -16 3240 -19 1958 -2 3215 0 3260 6 41 5 91
14 110 19 23 7 -1131 10 -3315 10 -3097 0 -3346 -1 -3295 -16z"/>
</g>
</svg>
