<svg width="32" height="32" viewBox="0 0 32 32" fill="none" xmlns="http://www.w3.org/2000/svg">
<rect x="7.47058" y="9.35297" width="17.0588" height="11.4118" rx="2" stroke="#001F3F" stroke-width="2"/>
<path d="M31 16C31 24.2843 24.2843 31 16 31C7.71573 31 1 24.2843 1 16C1 7.71573 7.71573 1 16 1C24.2843 1 31 7.71573 31 16Z" stroke="#001F3F" stroke-width="2"/>
<path d="M17.0458 13.8311C15.2889 15.5731 14.7033 15.7757 13.9086 14.8439C13.1974 13.9932 12.2354 14.0742 12.2354 14.9655C12.2354 15.7352 14.285 17.8823 14.9961 17.8823C15.7072 17.8823 19.7648 13.6286 19.7648 12.8994C19.7648 11.765 18.8027 12.0891 17.0458 13.8311Z" fill="#57B894"/>
<path d="M12.2354 23.5294C12.2354 24.4235 12.4989 24.4706 16.0001 24.4706C19.5012 24.4706 19.7648 24.4235 19.7648 23.5294C19.7648 22.6353 19.5012 22.5882 16.0001 22.5882C12.4989 22.5882 12.2354 22.6353 12.2354 23.5294Z" fill="#001F3F"/>
</svg>
