<svg fill="none" xmlns="http://www.w3.org/2000/svg" viewBox="0 0 64 64"><rect x="14.9" y="18.7" width="34.1" height="22.8" rx="3" stroke="#001F3F" stroke-width="4"/><path d="M62 32a30 30 0 1 1-60 0 30 30 0 0 1 60 0Z" stroke="#001F3F" stroke-width="4"/><path d="M34 27.7c-3.4 3.4-4.6 3.9-6.2 2-1.4-1.7-3.3-1.6-3.3.2 0 1.6 4 5.9 5.5 5.9 1.4 0 9.5-8.5 9.5-10 0-2.3-1.9-1.6-5.4 1.9Z" fill="#57B894"/><path d="M24.5 47c0 1.8.5 2 7.5 2s7.5-.2 7.5-2c0-1.7-.5-1.8-7.5-1.8s-7.5 0-7.5 1.9Z" fill="#001F3F"/></svg>