<svg viewBox="0 0 256 126" fill="none" xmlns="http://www.w3.org/2000/svg">
<path d="M249.068 117.243H239.659C239.447 117.243 239.237 117.289 239.045 117.38C238.852 117.471 238.681 117.603 238.544 117.768C238.197 117.703 237.84 117.723 237.502 117.825C237.164 117.928 236.854 118.111 236.599 118.359C236.344 118.607 236.15 118.913 236.034 119.252C235.918 119.591 235.882 119.953 235.93 120.309C235.978 120.664 236.108 121.003 236.31 121.298C236.511 121.592 236.779 121.834 237.09 122.003C237.401 122.172 237.748 122.263 238.1 122.27C238.453 122.276 238.803 122.198 239.12 122.04L239.9 124.62C239.992 124.926 240.179 125.193 240.432 125.383C240.685 125.573 240.991 125.676 241.305 125.676H247.422C247.737 125.676 248.043 125.573 248.296 125.383C248.549 125.193 248.735 124.926 248.827 124.62L250.473 119.179C250.541 118.955 250.556 118.718 250.517 118.488C250.479 118.257 250.387 118.039 250.251 117.85C250.114 117.662 249.936 117.509 249.73 117.404C249.525 117.298 249.298 117.243 249.068 117.243ZM238.147 121.622C237.724 121.622 237.319 121.451 237.02 121.147C236.721 120.843 236.553 120.43 236.553 120C236.553 119.57 236.721 119.157 237.02 118.853C237.319 118.549 237.724 118.378 238.147 118.378C238.176 118.378 238.203 118.386 238.232 118.387C238.169 118.648 238.176 118.922 238.254 119.179L238.928 121.405C238.69 121.545 238.421 121.62 238.147 121.622Z" fill="#F0F0F0"/>
<path d="M19.8476 110.432H10.4388C10.2266 110.432 10.0168 110.479 9.82413 110.569C9.63148 110.66 9.46061 110.792 9.32348 110.957C8.97644 110.892 8.61924 110.912 8.28117 111.015C7.9431 111.117 7.63382 111.3 7.3787 111.548C7.12359 111.796 6.92992 112.102 6.81359 112.441C6.69726 112.78 6.6616 113.142 6.70951 113.498C6.75743 113.853 6.88757 114.192 7.08924 114.487C7.29092 114.781 7.55838 115.023 7.86968 115.192C8.18097 115.361 8.52722 115.453 8.88001 115.459C9.23279 115.466 9.58206 115.387 9.89913 115.229L10.9983 124.62C11.0907 124.926 11.2771 125.193 11.53 125.383C11.7829 125.573 12.0891 125.676 12.4035 125.676H18.5207C18.8351 125.676 19.1412 125.573 19.3941 125.383C19.647 125.193 19.8333 124.926 19.9257 124.62L21.2528 112.368C21.3204 112.144 21.3355 111.907 21.2969 111.677C21.2582 111.446 21.1669 111.228 21.0302 111.04C20.8935 110.851 20.7153 110.698 20.5099 110.593C20.3045 110.487 20.0777 110.432 19.8476 110.432ZM8.92653 114.811C8.50377 114.811 8.09832 114.64 7.79938 114.336C7.50045 114.032 7.33251 113.619 7.33251 113.189C7.33251 112.759 7.50045 112.347 7.79938 112.043C8.09832 111.738 8.50377 111.568 8.92653 111.568C8.95564 111.568 8.98272 111.575 9.01152 111.576C8.94812 111.837 8.95582 112.111 9.03378 112.368L9.70704 114.594C9.46986 114.734 9.2008 114.809 8.92653 114.811Z" fill="#F0F0F0"/>
<path d="M131.001 102.649C131.001 102.135 130.852 101.634 130.571 101.207C130.291 100.78 129.893 100.448 129.427 100.252C128.961 100.055 128.448 100.004 127.953 100.104C127.459 100.204 127.004 100.451 126.647 100.814C126.291 101.177 126.048 101.639 125.949 102.142C125.851 102.646 125.901 103.167 126.095 103.642C126.288 104.116 126.614 104.521 127.034 104.806C127.453 105.091 127.946 105.243 128.451 105.243C128.483 105.243 128.513 105.24 128.545 105.238C129.176 107.324 129.513 109.49 129.546 111.671C129.57 112.759 129.509 113.847 129.363 114.924C129.252 115.689 129.045 116.567 128.298 116.924C127.742 117.19 128.227 118.029 128.781 117.764C129.623 117.361 130.032 116.458 130.216 115.576C130.425 114.438 130.522 113.281 130.504 112.124C130.514 109.718 130.168 107.324 129.479 105.022C129.932 104.819 130.317 104.487 130.587 104.066C130.857 103.644 131.001 103.152 131.001 102.649Z" fill="#E6E6E6"/>
<path d="M130.222 118.283C130.222 118.283 126.802 109.72 137.061 103.297L130.222 118.283Z" fill="#E6E6E6"/>
<path d="M130.039 118.128C130.039 118.128 128.995 112.024 120.921 112.076L130.039 118.128Z" fill="#E6E6E6"/>
<path d="M135.76 125.624H121.739C121.47 125.624 121.206 125.547 120.978 125.402C120.75 125.257 120.567 125.049 120.449 124.803L117.396 118.419C117.29 118.197 117.241 117.951 117.254 117.704C117.267 117.457 117.341 117.217 117.47 117.007C117.599 116.798 117.778 116.625 117.991 116.505C118.204 116.385 118.443 116.322 118.686 116.322H138.812C139.056 116.322 139.295 116.385 139.507 116.505C139.72 116.625 139.899 116.798 140.028 117.007C140.157 117.217 140.232 117.457 140.244 117.704C140.257 117.951 140.208 118.197 140.102 118.419L137.049 124.803C136.932 125.049 136.748 125.257 136.52 125.402C136.292 125.547 136.029 125.624 135.76 125.624Z" fill="#F0F0F0"/>
<path d="M255.681 126H0.318804C0.234252 126 0.153163 125.966 0.0933754 125.905C0.033588 125.844 0 125.762 0 125.676C0 125.59 0.033588 125.507 0.0933754 125.446C0.153163 125.386 0.234252 125.351 0.318804 125.351H255.681C255.766 125.351 255.847 125.386 255.907 125.446C255.966 125.507 256 125.59 256 125.676C256 125.762 255.966 125.844 255.907 125.905C255.847 125.966 255.766 126 255.681 126Z" fill="#3F3D56"/>
<path d="M53.2642 107.166L47.0683 83.3325L46.351 80.5813L47.0236 79.9459L58.5714 74.1259L75.0727 74.544L84.7602 79.6035L84.8125 83.3325L85.2907 116.93L87.2233 125.176H51.7799L54.5318 112.042L53.2642 107.166Z" fill="#001F3F"/>
<path d="M94.0246 125.176H84.7878L82.2375 106.443L82.905 83.3326L82.9971 80.1886L84.7603 79.6033C86.0892 80.5907 87.1878 81.864 87.9779 83.3326C89.1111 85.3392 90.0524 88.2147 89.8183 92.0809C89.8183 92.0809 90.0276 96.6463 89.8283 99.6865C89.6913 101.764 92.0746 114.895 94.0246 125.176Z" fill="#001F3F"/>
<path d="M53.2966 106.927L53.2643 107.165L50.8136 125.176H40.1921C41.0438 114.971 42.045 102.212 41.9105 100.168C41.7113 97.1302 41.9205 92.5623 41.9205 92.5623C41.6664 88.3744 42.7947 85.3544 44.0473 83.3327C44.6775 82.3049 45.4538 81.3777 46.3509 80.5813C46.5499 80.4036 46.7595 80.2386 46.9785 80.0872L48.7417 80.6699L49.2024 83.3327L53.2966 106.927Z" fill="#001F3F"/>
<path d="M54.5209 58.4648C54.5209 60.7663 55.1918 63.0161 56.4486 64.9297C57.7055 66.8433 59.492 68.3348 61.5821 69.2156C63.6722 70.0963 65.9721 70.3268 68.191 69.8778C70.4099 69.4288 72.448 68.3205 74.0477 66.6931C75.6474 65.0657 76.7368 62.9922 77.1782 60.735C77.6196 58.4777 77.393 56.1379 76.5273 54.0116C75.6615 51.8853 74.1954 50.0679 72.3144 48.7893C70.4333 47.5106 68.2218 46.8282 65.9595 46.8282C62.9333 46.8205 60.0281 48.036 57.883 50.2074C55.7379 52.3789 54.5285 55.3282 54.5209 58.4068C54.5209 58.4261 54.5209 58.4454 54.5209 58.4648Z" fill="#FFB7B7"/>
<path d="M102.496 123.32C102.496 123.985 102.236 124.622 101.775 125.091C101.313 125.561 100.687 125.825 100.034 125.825H34.1828C33.5299 125.825 32.9038 125.561 32.4421 125.091C31.9804 124.622 31.7211 123.985 31.7211 123.32C31.7211 122.656 31.9804 122.019 32.4421 121.55C32.9038 121.08 33.5299 120.816 34.1828 120.816H34.9137C34.8719 120.667 34.8501 120.513 34.849 120.358V86.1563C34.849 85.5795 35.0743 85.0262 35.4752 84.6183C35.8762 84.2104 36.42 83.9813 36.987 83.9813H97.2298C97.7968 83.9813 98.3406 84.2104 98.7415 84.6183C99.1425 85.0262 99.3677 85.5794 99.3677 86.1562V120.358C99.3679 120.513 99.3461 120.667 99.303 120.816H100.034C100.357 120.816 100.677 120.881 100.976 121.007C101.275 121.133 101.546 121.317 101.775 121.55C102.003 121.782 102.185 122.058 102.308 122.362C102.432 122.666 102.496 122.992 102.496 123.32Z" fill="#3F3D56"/>
<path d="M68.3837 103.515C67.6311 103.515 66.8954 103.288 66.2696 102.862C65.6438 102.437 65.1561 101.832 64.868 101.125C64.58 100.418 64.5047 99.6394 64.6515 98.8885C64.7983 98.1375 65.1607 97.4477 65.6929 96.9063C66.2251 96.3649 66.9031 95.9962 67.6413 95.8468C68.3794 95.6974 69.1446 95.7741 69.8399 96.0671C70.5352 96.3601 71.1295 96.8563 71.5477 97.4929C71.9658 98.1295 72.189 98.8779 72.189 99.6436C72.1879 100.67 71.7866 101.654 71.0732 102.38C70.3599 103.105 69.3926 103.514 68.3837 103.515ZM68.3837 96.4211C67.7572 96.4211 67.1447 96.6101 66.6238 96.9642C66.1029 97.3183 65.6968 97.8216 65.4571 98.4104C65.2173 98.9993 65.1546 99.6473 65.2769 100.272C65.3991 100.898 65.7008 101.472 66.1438 101.922C66.5868 102.373 67.1513 102.68 67.7658 102.804C68.3803 102.929 69.0172 102.865 69.596 102.621C70.1748 102.377 70.6696 101.964 71.0176 101.434C71.3657 100.904 71.5515 100.281 71.5514 99.6436C71.5505 98.7892 71.2164 97.9701 70.6225 97.366C70.0287 96.7619 69.2235 96.4221 68.3837 96.4211Z" fill="white"/>
<path d="M67.1085 101.893C69.0341 101.893 70.595 100.305 70.595 98.3463C70.595 96.3874 69.0341 94.7994 67.1085 94.7994C65.1829 94.7994 63.6219 96.3874 63.6219 98.3463C63.6219 100.305 65.1829 101.893 67.1085 101.893Z" fill="white"/>
<path d="M174.067 68.4912V61.6216C174.067 57.4928 175.68 53.5332 178.549 50.6137C181.419 47.6942 185.311 46.054 189.37 46.054C193.428 46.054 197.321 47.6942 200.19 50.6137C203.06 53.5332 204.672 57.4928 204.672 61.6216V68.4912C204.671 69.4214 204.308 70.3133 203.661 70.9711C203.015 71.6289 202.138 71.9989 201.223 72H180.539L178.849 68.3471V72H177.516C176.602 71.9989 175.725 71.6289 175.079 70.9711C174.432 70.3133 174.068 69.4214 174.067 68.4912Z" fill="#2F2E41"/>
<path d="M200.53 90.4788L201.189 97.7445L201.489 101.046L201.967 106.302L202.027 106.98L202.416 111.249L202.426 111.296C202.671 112.095 203.163 112.791 203.828 113.283C204.494 113.775 205.297 114.035 206.12 114.025L223.871 113.713L228.881 113.624C228.977 113.772 229.072 113.904 229.166 114.022C229.606 114.566 230.153 115.009 230.773 115.324C231.392 115.638 232.07 115.817 232.761 115.847C233.456 115.88 234.15 115.761 234.796 115.499C235.442 115.237 236.026 114.837 236.508 114.327C236.605 114.226 236.699 114.121 236.786 114.01C237.442 113.189 237.827 112.177 237.884 111.12C237.941 110.063 237.668 109.015 237.105 108.125C236.729 107.529 236.233 107.022 235.649 106.637C235.065 106.252 234.407 105.999 233.72 105.894C233.036 105.788 232.338 105.829 231.67 106.014C231.003 106.2 230.382 106.527 229.847 106.973C229.677 107.115 229.518 107.27 229.371 107.437L223.871 106.622L210.019 104.571L209.428 96.4402C209.425 96.4034 209.423 96.3665 209.42 96.3273L208.942 89.7665C208.862 88.6748 208.376 87.6552 207.582 86.9161C206.788 86.1771 205.747 85.7742 204.671 85.7898C204.317 85.7934 203.965 85.8438 203.623 85.9396C203.24 86.045 202.875 86.2055 202.537 86.4161C201.861 86.8337 201.315 87.4361 200.96 88.1545C200.605 88.8729 200.456 89.6784 200.53 90.4788Z" fill="#9E616A"/>
<path d="M189.989 72.3768C195.53 72.3768 200.022 67.807 200.022 62.1698C200.022 56.5326 195.53 51.9627 189.989 51.9627C184.448 51.9627 179.956 56.5326 179.956 62.1698C179.956 67.807 184.448 72.3768 189.989 72.3768Z" fill="#9E616A"/>
<path d="M203.367 79.1815L205.191 78.5629C205.191 78.5629 208.84 80.1094 208.84 82.8932C208.84 85.6769 209.448 96.8119 209.448 96.8119L201.239 97.7398L203.367 79.1815Z" fill="#001F3F"/>
<path d="M164.557 125.501H171.791L174.265 104.404L175.161 96.7841L175.284 95.7328L175.946 90.0932C175.982 89.3851 175.826 88.6805 175.497 88.0556C175.167 87.4307 174.676 86.9093 174.077 86.5477C173.477 86.1861 172.792 85.9981 172.095 86.0039C171.398 86.0097 170.716 86.2091 170.122 86.5807C169.973 86.6744 169.83 86.7786 169.695 86.8927C169.28 87.2399 168.941 87.6727 168.703 88.1626C168.464 88.6524 168.33 89.1882 168.309 89.7346L167.657 95.9367L164.557 125.501Z" fill="#9E616A"/>
<path d="M175.406 96.8118L167.197 95.8839C167.197 95.8839 167.805 84.749 167.805 81.9652C167.805 79.1815 171.454 77.635 171.454 77.635L173.278 78.2536L175.406 96.8118Z" fill="#001F3F"/>
<path d="M172.744 125.501H207.061C205.974 121.273 204.49 117.161 202.631 113.222C202.329 112.595 202.15 112.261 202.15 112.261C202.15 112.261 187.557 111.969 178.435 115.68C177.853 115.936 177.332 116.314 176.904 116.791C175.325 118.451 173.944 121.568 172.744 125.501Z" fill="#2F2E41"/>
<path d="M179.956 75.7792C179.956 75.7792 179.666 75.621 196.981 76.2627L204.228 78.293L205.191 78.5629C205.191 78.5629 204.279 97.1212 201.847 100.524C199.414 103.926 200.022 105.782 200.63 106.091C201.238 106.4 202.759 105.782 201.847 107.328C200.934 108.875 199.718 107.947 200.934 108.875C202.151 109.803 202.759 113.205 202.759 113.205L176.003 116.917C176.003 116.917 175.091 104.854 172.659 98.6677C170.226 92.4816 169.618 90.0072 169.618 90.0072L171.443 77.635L179.956 75.7792Z" fill="#001F3F"/>
<path d="M179.168 56.4324C179.168 53.7659 180.209 51.2087 182.063 49.3231C183.916 47.4376 186.43 46.3784 189.051 46.3784C191.672 46.3784 194.186 47.4376 196.039 49.3231C197.893 51.2087 198.934 53.7659 198.934 56.4324V60.973H179.168V56.4324Z" fill="#2F2E41"/>
<path d="M222.685 122.949V123.845C222.685 124.37 222.48 124.874 222.115 125.245C221.75 125.616 221.255 125.825 220.739 125.825H156.014C155.498 125.825 155.003 125.616 154.638 125.245C154.273 124.874 154.068 124.37 154.068 123.845V122.949C154.068 122.424 154.273 121.92 154.638 121.549C155.003 121.178 155.498 120.969 156.014 120.969H157.163C157.123 120.824 157.101 120.675 157.1 120.524V86.9173C157.101 86.477 157.273 86.0549 157.579 85.7435C157.885 85.4322 158.3 85.2572 158.732 85.2569H218.02C218.453 85.2572 218.868 85.4322 219.174 85.7435C219.48 86.0549 219.652 86.477 219.652 86.9173V120.524C219.652 120.675 219.631 120.824 219.59 120.969H220.739C221.255 120.969 221.75 121.178 222.115 121.549C222.48 121.92 222.685 122.424 222.685 122.949Z" fill="#3F3D56"/>
<path d="M189.652 104.244C188.92 104.244 188.205 104.024 187.597 103.61C186.988 103.197 186.514 102.609 186.234 101.921C185.954 101.234 185.881 100.477 186.024 99.7472C186.166 99.0172 186.519 98.3467 187.036 97.8204C187.553 97.2941 188.213 96.9357 188.93 96.7905C189.648 96.6453 190.391 96.7198 191.067 97.0046C191.743 97.2894 192.321 97.7718 192.727 98.3906C193.134 99.0095 193.351 99.737 193.351 100.481C193.35 101.479 192.96 102.436 192.266 103.141C191.573 103.846 190.632 104.243 189.652 104.244ZM189.652 97.3668C189.046 97.3668 188.454 97.5495 187.951 97.8917C187.447 98.2339 187.055 98.7203 186.823 99.2894C186.592 99.8585 186.531 100.485 186.649 101.089C186.767 101.693 187.059 102.248 187.487 102.684C187.915 103.119 188.461 103.416 189.054 103.536C189.648 103.656 190.264 103.594 190.823 103.359C191.383 103.123 191.861 102.724 192.197 102.212C192.534 101.699 192.713 101.097 192.713 100.481C192.712 99.6556 192.389 98.8639 191.815 98.2801C191.242 97.6962 190.463 97.3677 189.652 97.3668V97.3668Z" fill="white"/>
<path d="M188.376 102.623C190.243 102.623 191.757 101.083 191.757 99.184C191.757 97.2848 190.243 95.7452 188.376 95.7452C186.51 95.7452 184.996 97.2848 184.996 99.184C184.996 101.083 186.51 102.623 188.376 102.623Z" fill="white"/>
<path d="M78.9163 48.7986C77.9943 48.0742 77.2447 47.1476 76.7235 46.0877C76.5374 45.6848 76.2807 45.3198 75.966 45.0105L73.8032 46.7027L75.1249 44.3607C71.7397 42.279 65.1291 43.3846 65.1291 43.3846C58.2524 39.6594 55.7274 44.3095 54.8471 47.2585C54.4983 48.3257 53.8834 49.2826 53.0623 50.0357C51.3661 51.6811 54.0373 54.8817 54.0373 54.8817V55.1079L54.6749 59.5135C54.6749 59.5135 55.3125 56.5946 56.9951 54.5434C58.0559 53.2502 59.7826 52.4813 60.5845 52.4973C70.9339 52.7027 72.8933 53.1196 72.8933 53.1196C72.8933 53.1196 74.6455 54.0772 75.4193 54.4795C77.9199 55.7794 77.31 60.4865 77.31 60.4865L79.1786 52.1322C79.61 50.1071 79.3704 49.1779 78.9163 48.7986Z" fill="#2F2E41"/>
<path d="M175.499 2.87418H157V23.49H175.499V2.87418Z" fill="#F2F2F2"/>
<path d="M178.716 1H160.217V21.6158H178.716V1Z" stroke="#3F3D56" stroke-miterlimit="10"/>
<path d="M142.499 35.8741H124V56.4899H142.499V35.8741Z" fill="#001F3F"/>
<path d="M145.716 34H127.217V54.6158H145.716V34Z" stroke="#3F3D56" stroke-miterlimit="10"/>
<path d="M105.499 9.87415H87V30.4899H105.499V9.87415Z" fill="#001F3F"/>
<path d="M108.716 8H90.217V28.6158H108.716V8Z" stroke="#3F3D56" stroke-miterlimit="10"/>
</svg>
