<svg width="182" height="204" viewBox="0 0 182 204" fill="none" xmlns="http://www.w3.org/2000/svg">
<ellipse cx="83" cy="196" rx="83" ry="8" fill="#C4C4C4"/>
<path d="M173.195 101.792C172.221 101.654 171.292 101.29 170.482 100.731C169.672 100.171 169.003 99.4311 168.527 98.5683C168.052 97.7054 167.783 96.7437 167.741 95.7589C167.7 94.7741 167.887 93.7931 168.289 92.8932C168.69 91.9933 169.295 91.1992 170.055 90.5734C170.815 89.9477 171.71 89.5073 172.669 89.2871C173.628 89.0669 174.625 89.0729 175.581 89.3046C176.537 89.5362 177.427 89.9873 178.179 90.6221L176.501 93.438L179.184 91.6896C180.188 93.0359 180.618 94.7266 180.379 96.3901C180.297 96.9741 180.134 97.5435 179.893 98.0815C179.331 99.3456 178.373 100.392 177.164 101.061C175.956 101.731 174.562 101.988 173.195 101.792Z" fill="#57B894"/>
<path d="M148.601 131.713C150.391 129.512 149.463 126.217 148.154 123.699C146.845 121.181 145.176 118.502 145.751 115.722C146.578 111.726 151.274 110.171 155.071 108.694C157.888 107.598 160.566 106.172 163.048 104.444C164.043 103.752 165.021 102.995 165.716 102C166.715 100.567 167.035 98.7804 167.318 97.0552C168.259 91.308 169.064 85.5408 169.734 79.7534" stroke="#3F3D56" stroke-miterlimit="10"/>
<path d="M173.36 100.925C172.386 100.786 171.457 100.423 170.647 99.8634C169.837 99.3039 169.168 98.5635 168.692 97.7007C168.217 96.8379 167.948 95.8762 167.906 94.8913C167.865 93.9065 168.052 92.9255 168.454 92.0256C168.855 91.1258 169.46 90.3317 170.22 89.7059C170.98 89.0801 171.875 88.6398 172.834 88.4196C173.793 88.1994 174.79 88.2053 175.746 88.437C176.703 88.6687 177.592 89.1197 178.345 89.7546L176.666 92.5705L179.349 90.8221C180.354 92.1684 180.783 93.859 180.544 95.5225C180.463 96.1065 180.299 96.676 180.058 97.214C179.496 98.4781 178.538 99.5242 177.33 100.194C176.121 100.863 174.727 101.12 173.36 100.925V100.925Z" stroke="#3F3D56" stroke-miterlimit="10"/>
<path d="M176.022 81.8298C176.173 80.7736 176.056 79.6964 175.682 78.6973C175.308 77.6983 174.689 76.8097 173.882 76.1133L171.958 78.615L172.638 75.2716C171.441 74.6547 170.079 74.435 168.749 74.6444C167.418 74.8537 166.189 75.4811 165.238 76.4361C164.287 77.3911 163.663 78.6242 163.457 79.9575C163.251 81.2907 163.473 82.655 164.091 83.8535C164.71 85.052 165.692 86.0225 166.897 86.6251C168.102 87.2276 169.467 87.431 170.794 87.2058C172.122 86.9806 173.344 86.3385 174.283 85.3722C175.223 84.4059 175.832 83.1654 176.022 81.8298V81.8298Z" fill="#57B894"/>
<path d="M176.242 80.6731C176.393 79.6169 176.276 78.5396 175.902 77.5406C175.528 76.5416 174.909 75.6529 174.102 74.9566L172.179 77.4583L172.859 74.1149C171.661 73.4979 170.299 73.2783 168.969 73.4876C167.638 73.6969 166.409 74.3244 165.458 75.2794C164.507 76.2344 163.883 77.4675 163.677 78.8007C163.471 80.134 163.693 81.4983 164.312 82.6968C164.93 83.8952 165.912 84.8658 167.117 85.4684C168.322 86.0709 169.687 86.2743 171.014 86.0491C172.342 85.8239 173.564 85.1818 174.504 84.2155C175.443 83.2492 176.052 82.0087 176.242 80.6731V80.6731Z" stroke="#3F3D56" stroke-miterlimit="10"/>
<path d="M156.026 109.276C154.481 109.055 153.072 108.272 152.067 107.078C151.061 105.883 150.53 104.359 150.574 102.797C150.618 101.235 151.234 99.7432 152.305 98.6068C153.375 97.4704 154.826 96.7686 156.38 96.635L155.858 99.2043L157.803 96.6727C157.809 96.673 157.815 96.6737 157.821 96.6749C159.488 96.9134 160.993 97.8059 162.004 99.1561C163.015 100.506 163.45 102.204 163.211 103.874C162.973 105.545 162.083 107.053 160.735 108.066C159.387 109.079 157.693 109.514 156.026 109.276Z" fill="#57B894"/>
<path d="M156.294 108.128C154.75 107.907 153.34 107.125 152.335 105.93C151.33 104.735 150.798 103.211 150.842 101.649C150.886 100.087 151.502 98.5956 152.573 97.4592C153.644 96.3228 155.094 95.621 156.648 95.4874L156.126 98.0567L158.072 95.5251C158.077 95.5254 158.083 95.5261 158.089 95.5273C158.915 95.6454 159.709 95.9253 160.427 96.351C161.145 96.7767 161.772 97.3399 162.272 98.0085C162.773 98.677 163.137 99.4378 163.344 100.247C163.552 101.057 163.598 101.9 163.48 102.727C163.362 103.554 163.082 104.35 162.658 105.07C162.233 105.789 161.67 106.417 161.003 106.919C160.336 107.42 159.577 107.785 158.769 107.993C157.961 108.2 157.12 108.246 156.294 108.128V108.128Z" stroke="#3F3D56" stroke-miterlimit="10"/>
<path d="M156.899 121.72C156.002 122.869 154.737 123.675 153.317 124.001C151.898 124.327 150.409 124.155 149.101 123.512C147.794 122.869 146.746 121.795 146.135 120.471C145.524 119.146 145.385 117.651 145.744 116.237C146.102 114.822 146.935 113.574 148.102 112.701C149.27 111.829 150.702 111.385 152.157 111.445C153.612 111.504 155.003 112.064 156.096 113.029C157.189 113.994 157.917 115.306 158.159 116.745L153.657 119.177L158.133 119.001C157.945 119.993 157.522 120.926 156.899 121.72Z" fill="#57B894"/>
<path d="M157.064 120.852C156.167 122.002 154.902 122.807 153.482 123.134C152.063 123.46 150.574 123.287 149.266 122.644C147.959 122.002 146.911 120.928 146.3 119.603C145.689 118.278 145.55 116.784 145.909 115.369C146.267 113.954 147.1 112.706 148.267 111.834C149.435 110.961 150.867 110.518 152.322 110.577C153.777 110.637 155.168 111.196 156.261 112.161C157.354 113.126 158.082 114.438 158.324 115.877L153.822 118.31L158.299 118.133C158.11 119.126 157.687 120.058 157.064 120.852V120.852Z" stroke="#3F3D56" stroke-miterlimit="10"/>
<path d="M82.2589 165.321C96.8404 165.321 108.661 151.89 108.661 135.321C108.661 118.753 96.8404 105.321 82.2589 105.321C67.6774 105.321 55.8567 118.753 55.8567 135.321C55.8567 151.89 67.6774 165.321 82.2589 165.321Z" fill="#36334A"/>
<path d="M116.149 35.4967C109.805 38.27 102.886 39.4707 95.9803 38.997C97.7545 37.7292 98.8927 35.6936 99.3515 33.5592C99.8104 31.4249 99.6356 29.1942 99.1616 27.0632C99.0752 26.8199 99.0803 26.5533 99.176 26.3135C99.2731 26.1931 99.3959 26.096 99.5354 26.0295C99.6749 25.9629 99.8275 25.9285 99.982 25.9289C102.656 25.5559 110.317 23.9364 112.353 26.2303C113.319 27.3173 112.949 29.4287 113.301 30.7564C113.447 31.3047 115.308 35.8654 116.149 35.4967Z" fill="#FBBEBE"/>
<path opacity="0.1" d="M116.149 35.4967C109.805 38.27 102.886 39.4707 95.9803 38.997C97.7545 37.7292 98.8927 35.6936 99.3515 33.5592C99.8104 31.4249 99.6356 29.1942 99.1616 27.0632C99.0752 26.8199 99.0803 26.5533 99.176 26.3135C99.2731 26.1931 99.3959 26.096 99.5354 26.0295C99.6749 25.9629 99.8275 25.9285 99.982 25.9289C102.656 25.5559 110.317 23.9364 112.353 26.2303C113.319 27.3173 112.949 29.4287 113.301 30.7564C113.447 31.3047 115.308 35.8654 116.149 35.4967Z" fill="black"/>
<path d="M93.8575 81.0398L54.1779 82.263C54.1779 82.263 19.0767 116.514 48.0733 126.911C48.0733 126.911 83.785 132.722 92.3313 125.994C92.3313 125.994 103.014 83.7921 93.8575 81.0398ZM92.0261 92.3547L49.5995 95.107C49.5995 95.107 52.6517 84.7095 64.8608 84.7095C77.07 84.7095 90.8052 81.9572 92.0261 88.3792C93.247 94.8012 92.0261 92.3547 92.0261 92.3547Z" fill="#3F3D56"/>
<path d="M62.5761 75.5531C60.5968 75.2496 58.4451 75.0743 56.7116 76.0783C56.1346 76.4398 55.5987 76.8634 55.1136 77.3416C54.4165 77.9829 53.7248 78.6298 53.0382 79.2825C52.5362 79.7597 52.0112 80.286 51.8824 80.9672C51.6173 82.3691 53.2335 83.4979 54.6564 83.4431C56.0794 83.3884 57.356 82.605 58.6998 82.1331C61.4062 81.1827 71.3593 82.8074 71.9031 79.8874C72.5945 76.1747 64.7772 75.9039 62.5761 75.5531Z" fill="#FBBEBE"/>
<path d="M81.1251 73.2085C78.5372 74.5254 75.719 75.3271 72.8265 75.5693C72.3749 75.5768 71.9291 75.6719 71.5136 75.8493C71.2622 76.0044 71.0696 76.2392 70.9664 76.5164C69.9497 78.6492 69.3215 80.9469 69.1113 83.3011C69.0838 83.4141 69.0894 83.5326 69.1274 83.6425C69.1654 83.7524 69.2342 83.849 69.3255 83.9208C69.6036 84.0604 69.9116 84.1296 70.2226 84.1225C74.9713 84.4245 79.7357 84.5867 84.5158 84.609C84.7269 84.6253 84.939 84.5965 85.1381 84.5243C85.2071 84.4874 85.2679 84.437 85.3171 84.376C85.3662 84.3151 85.4026 84.2449 85.4241 84.1696C86.5456 81.3756 87.0744 78.3783 86.9768 75.3684C86.8519 71.8236 85.8159 70.7136 81.1251 73.2085Z" fill="#D7E5F2"/>
<path opacity="0.1" d="M81.1251 73.2085C78.5372 74.5254 75.719 75.3271 72.8265 75.5693C72.3749 75.5768 71.9291 75.6719 71.5136 75.8493C71.2622 76.0044 71.0696 76.2392 70.9664 76.5164C69.9497 78.6492 69.3215 80.9469 69.1113 83.3011C69.0838 83.4141 69.0894 83.5326 69.1274 83.6425C69.1654 83.7524 69.2342 83.849 69.3255 83.9208C69.6036 84.0604 69.9116 84.1296 70.2226 84.1225C74.9713 84.4245 79.7357 84.5867 84.5158 84.609C84.7269 84.6253 84.939 84.5965 85.1381 84.5243C85.2071 84.4874 85.2679 84.437 85.3171 84.376C85.3662 84.3151 85.4026 84.2449 85.4241 84.1696C86.5456 81.3756 87.0744 78.3783 86.9768 75.3684C86.8519 71.8236 85.8159 70.7136 81.1251 73.2085Z" fill="black"/>
<path d="M134.453 105.199L82.2589 103.364L94.468 51.6819C94.468 51.6819 143.304 48.0122 142.083 60.5504C140.863 73.0887 134.453 105.199 134.453 105.199Z" fill="#36334A"/>
<path d="M84.0655 129.904C84.0655 129.904 52.6517 135.474 41.3583 118.96C30.0649 102.446 84.0902 111.315 84.0902 111.315L88.6686 123.853L84.0655 129.904Z" fill="#36334A"/>
<path d="M74.6282 200C82.5511 200 88.9739 193.565 88.9739 185.627C88.9739 177.689 82.5511 171.254 74.6282 171.254C66.7053 171.254 60.2825 177.689 60.2825 185.627C60.2825 193.565 66.7053 200 74.6282 200Z" fill="#36334A"/>
<path d="M76.0017 196.024C80.9745 196.024 85.0059 191.369 85.0059 185.627C85.0059 179.885 80.9745 175.229 76.0017 175.229C71.0288 175.229 66.9974 179.885 66.9974 185.627C66.9974 191.369 71.0288 196.024 76.0017 196.024Z" fill="#3F3D56"/>
<path d="M153.072 50.1529C153.072 50.1529 141.168 43.4251 140.557 59.3272L130.485 133.333H134.758L146.357 54.1284C146.357 54.1284 152.156 55.0459 153.072 55.0459C153.987 55.0459 153.072 50.1529 153.072 50.1529Z" fill="#3F3D56"/>
<path d="M164.933 58.3185C164.824 58.7113 164.633 59.0763 164.371 59.3889C164.11 59.7015 163.785 59.9545 163.419 60.1311C163.052 60.3076 162.652 60.4036 162.245 60.4125C161.838 60.4215 161.434 60.3432 161.06 60.1829L147.251 54.2678L149.756 48.7396L163.366 54.9501C163.985 55.2325 164.482 55.727 164.77 56.3445C165.057 56.9621 165.115 57.6621 164.933 58.3185Z" fill="#36334A"/>
<path d="M81.0379 128.135C81.0379 128.135 59.0616 125.688 52.957 146.789C46.8525 167.89 47.4629 184.098 42.274 182.875C37.0852 181.651 26.097 177.37 26.097 177.37L27.0127 183.792C27.0127 183.792 46.242 193.578 49.2943 183.18C52.3466 172.783 54.1779 134.557 71.5759 135.474C88.9739 136.391 92.0261 134.557 92.0261 134.557L81.0379 128.135Z" fill="#3F3D56"/>
<path d="M39.2218 118.043C39.2218 118.043 22.129 120.183 15.414 132.722C8.699 145.26 5.34149 167.89 5.34149 167.89H11.7513C11.7513 167.89 15.414 122.936 34.6433 125.382L39.2218 118.043Z" fill="#3F3D56"/>
<path d="M27.6231 188.073L0.457886 171.254C0.457886 171.254 -1.06825 165.138 16.3297 162.691C16.3297 162.691 49.2232 174.217 46.0539 178.546C42.8845 182.875 32.2016 189.602 27.6231 188.073Z" fill="#36334A"/>
<path d="M69.7445 133.333V169.113H73.7125V132.722L69.7445 133.333Z" fill="#3F3D56"/>
<path d="M75.5438 155.352C75.5438 155.352 83.1745 185.321 78.2909 189.602C78.2909 189.602 71.8811 170.642 66.9974 173.089L68.5236 155.352H75.5438Z" fill="#36334A"/>
<path d="M105.151 30.5811C111.725 30.5811 117.055 25.2413 117.055 18.6544C117.055 12.0676 111.725 6.72784 105.151 6.72784C98.5766 6.72784 93.2471 12.0676 93.2471 18.6544C93.2471 25.2413 98.5766 30.5811 105.151 30.5811Z" fill="#FBBEBE"/>
<path d="M102.9 36.731C107.754 37.5574 111.95 31.9026 116.809 32.6978C117.866 32.9146 118.877 33.3133 119.798 33.8762C123.378 35.9053 126.497 38.6583 128.958 41.9603C131.419 45.2622 133.167 49.0409 134.092 53.0562C134.641 55.5091 134.853 58.1689 133.819 60.4593C133.269 61.6768 132.4 62.7166 131.53 63.7298C128.297 67.4973 124.748 71.2519 120.135 73.0748C119.684 74.6387 120.117 76.3318 120.657 77.8669C122.913 84.2761 119.326 91.1835 119.143 97.9772C119.112 99.1391 119.146 100.413 118.421 101.32C117.616 102.327 116.179 102.506 114.893 102.579C103.106 103.244 91.3361 101.432 79.6694 99.6262C79.3639 99.6052 79.0691 99.5052 78.8137 99.336C78.4301 99.0291 78.372 98.4805 78.2903 97.9955C77.8576 95.4285 80.1327 93.347 79.0539 90.9786C77.1995 86.9071 81.2447 82.4546 82.4114 78.1346C83.5782 73.8145 84.0378 73.0546 84.8533 68.6544C85.1581 67.0092 84.2799 62.0492 84.548 60.3976C85.4239 55.0025 84.7616 48.8573 87.6003 44.1896C89.3059 41.3852 88.8632 39.2044 91.9067 37.9851C95.1181 36.6985 99.4641 37.1316 102.9 36.731Z" fill="#D7E5F2"/>
<path d="M49.1401 107.857C45.5864 108.544 41.8134 109.198 39.0786 111.574C37.4084 113.024 36.2858 114.99 35.1953 116.917L24.0698 136.57C20.6766 142.564 17.2817 148.561 14.2053 154.724C13.9365 155.172 13.7788 155.678 13.7454 156.2C13.7576 156.936 14.251 157.568 14.7562 158.102C16.5113 159.925 18.6674 161.312 21.0523 162.152C23.4373 162.992 25.9852 163.262 28.4928 162.941C29.2581 158.971 33.0246 156.347 34.8707 152.752C35.8851 150.776 36.2928 148.554 36.9476 146.432C39.3899 138.514 45.1876 132.157 50.8163 126.085C53.4766 123.215 56.1997 120.295 59.6273 118.412C63.6485 116.203 68.3143 115.592 72.8079 114.674C77.3016 113.757 81.9545 112.366 85.1342 109.055C86.4838 107.629 87.5001 105.92 88.1095 104.052C88.719 102.184 88.9064 100.203 88.6583 98.254C85.7795 98.0523 82.5757 97.6772 79.7988 98.6048C76.5736 99.6821 73.4542 101.155 70.2242 102.255C63.3323 104.603 56.2878 106.475 49.1401 107.857Z" fill="#696880"/>
<path opacity="0.1" d="M49.1401 107.857C45.5864 108.544 41.8134 109.198 39.0786 111.574C37.4084 113.024 36.2858 114.99 35.1953 116.917L24.0698 136.57C20.6766 142.564 17.2817 148.561 14.2053 154.724C13.9365 155.172 13.7788 155.678 13.7454 156.2C13.7576 156.936 14.251 157.568 14.7562 158.102C16.5113 159.925 18.6674 161.312 21.0523 162.152C23.4373 162.992 25.9852 163.262 28.4928 162.941C29.2581 158.971 33.0246 156.347 34.8707 152.752C35.8851 150.776 36.2928 148.554 36.9476 146.432C39.3899 138.514 45.1876 132.157 50.8163 126.085C53.4766 123.215 56.1997 120.295 59.6273 118.412C63.6485 116.203 68.3143 115.592 72.8079 114.674C77.3016 113.757 81.9545 112.366 85.1342 109.055C86.4838 107.629 87.5001 105.92 88.1095 104.052C88.719 102.184 88.9064 100.203 88.6583 98.254C85.7795 98.0523 82.5757 97.6772 79.7988 98.6048C76.5736 99.6821 73.4542 101.155 70.2242 102.255C63.3323 104.603 56.2878 106.475 49.1401 107.857Z" fill="black"/>
<path d="M1.1742 170.177C0.777966 170.461 0.473355 170.855 0.297868 171.311C-0.10621 172.69 1.61661 173.662 2.99527 174.059C6.09279 174.952 9.39744 175.847 12.487 174.927C14.3817 174.363 16.0304 173.153 17.9128 172.549C20.7063 171.652 23.732 172.162 26.6198 172.678C27.265 169.041 26.8309 165.294 25.3713 161.901C24.4449 159.76 20.7362 158.717 18.5281 158.624C16.1145 158.521 15.2762 160.305 13.8829 161.947C10.4895 165.947 5.08369 166.875 1.1742 170.177Z" fill="#3F3D56"/>
<path d="M51.4078 113.715C49.7001 114.396 47.949 115.104 46.6094 116.365C45.1951 117.695 44.3672 119.521 43.6124 121.312C41.3814 126.606 39.4821 132.034 37.9256 137.564C37.1392 140.358 36.4383 143.185 35.3788 145.887C33.2643 151.281 29.6762 156.446 30.0132 162.231C30.0113 162.934 30.2001 163.624 30.5594 164.227C31.0383 164.924 31.8532 165.293 32.6274 165.63L36.686 167.396C38.8639 168.343 41.5215 169.254 43.4673 167.891C44.7694 166.979 45.2895 165.324 45.6823 163.781C47.1009 158.211 47.9774 152.424 50.5192 147.269C53.392 141.444 58.2492 136.736 60.8195 130.77C61.1833 129.925 61.5282 129.019 62.2434 128.443C62.8342 127.967 63.6002 127.781 64.3395 127.613C79.583 124.135 95.1702 122.233 110.292 118.257C112.441 117.691 114.691 117.02 116.224 115.408C118.351 113.174 118.54 109.777 118.608 106.69C118.651 104.756 118.642 102.654 117.466 101.12C116.139 99.3895 113.761 98.9326 111.595 98.7044C103.289 97.829 95.6274 99.208 87.4465 100.218C79.9614 101.142 72.4223 105.375 65.4393 108.141C60.7602 109.994 56.083 111.852 51.4078 113.715Z" fill="#696880"/>
<path d="M32.6259 169C31.4841 171.716 30.2524 174.553 27.937 176.37C26.9698 177.129 25.7186 177.889 25.68 179.12C25.6392 180.422 27.0038 181.281 28.2267 181.723C31.3412 182.849 34.8855 183.089 37.9242 181.772C40.0026 180.871 41.7166 179.314 43.3892 177.784C43.8931 177.324 44.4144 176.837 44.6506 176.196C44.8116 175.656 44.8599 175.088 44.7924 174.528C44.5919 171.131 43.9871 167.77 42.9909 164.516C42.9137 164.261 36.3461 163.44 35.7638 163.593C33.9302 164.072 33.3331 167.318 32.6259 169Z" fill="#3F3D56"/>
<path d="M134.758 90.2141L95.0784 91.4373C95.0784 91.4373 59.9772 125.688 88.9738 136.086C88.9738 136.086 124.685 141.896 133.232 135.168C133.232 135.168 143.915 92.9663 134.758 90.2141ZM132.927 101.529L90.5 104.281C90.5 104.281 93.5522 93.8838 105.761 93.8838C117.97 93.8838 131.706 91.1315 132.927 97.5535C134.148 103.976 132.927 101.529 132.927 101.529Z" fill="#3F3D56"/>
<path d="M125.754 200C147.752 200 165.586 179.736 165.586 154.74C165.586 129.744 147.752 109.48 125.754 109.48C103.755 109.48 85.9216 129.744 85.9216 154.74C85.9216 179.736 103.755 200 125.754 200Z" fill="#36334A"/>
<path d="M127.585 188.379C144.19 188.379 157.65 173.318 157.65 154.74C157.65 136.162 144.19 121.101 127.585 121.101C110.981 121.101 97.5203 136.162 97.5203 154.74C97.5203 173.318 110.981 188.379 127.585 188.379Z" fill="#3F3D56"/>
<path d="M135.368 154.281C135.368 153.694 135.309 153.109 135.194 152.534L157.65 141.284L156.124 137.92L133.44 148.993C133.211 148.757 132.959 148.545 132.686 148.362L132.704 148.366L139.336 115.291L133.469 115.157L129.569 147.706L129.943 147.785C129.64 147.847 129.346 147.948 129.068 148.085L109.45 127.908L106.677 131.804L126.834 150.384C126.328 151.356 126.025 152.422 125.941 153.515L97.5202 165.138L96.9098 170.031L126.535 157.547C126.812 158.234 127.203 158.868 127.693 159.422L118.581 190.52H121.938L129.587 160.688C129.927 160.798 130.281 160.854 130.637 160.856C131.326 160.85 131.999 160.648 132.577 160.274L148.493 181.346L153.377 177.982L134.729 157.573C135.157 156.529 135.374 155.41 135.368 154.281Z" fill="#36334A"/>
<path d="M91.3173 11.1036C91.8551 9.75076 93.5892 9.19115 94.1572 7.85076C94.7681 6.40919 93.8105 4.575 94.6417 3.24862C95.4791 1.91224 97.4307 2.06885 98.9844 2.32705C100.819 2.63186 102.769 2.83684 104.48 2.10763C105.241 1.78332 105.916 1.28809 106.653 0.912352C107.825 0.317162 109.129 0.0330784 110.441 0.087276C110.737 0.0804982 111.03 0.150489 111.291 0.290461C111.54 0.470072 111.731 0.717639 111.843 1.00349C112.378 2.16487 112.454 3.61445 113.423 4.44748C113.888 4.84761 114.492 5.03617 115.05 5.29236C116.348 5.92007 117.423 6.93171 118.129 8.19071C118.835 9.44971 119.138 10.8954 118.998 12.3328C118.871 12.9984 118.79 13.6722 118.758 14.3492C118.796 15.8363 119.766 17.3217 119.271 18.724C118.902 19.7662 117.825 20.3831 116.769 20.7045C116.468 20.8268 116.136 20.8437 115.825 20.7523C115.283 20.5324 115.175 19.8351 115.002 19.2758C114.757 18.5434 114.286 17.9085 113.655 17.4636C113.025 17.0188 112.27 16.7873 111.499 16.803C110.268 16.8554 109.022 17.5482 107.861 17.136C107.29 16.9334 106.843 16.4913 106.387 16.0924C105.337 15.1744 104.095 14.4106 102.715 14.2152C101.335 14.0198 99.8061 14.486 98.9934 15.6204C98.6652 16.0785 98.4665 16.6178 98.1534 17.0864C95.34 21.2971 90.1559 14.0254 91.3173 11.1036Z" fill="#36334A"/>
<path d="M92.7892 92.5076H71.7285V116.055H92.7892V92.5076Z" fill="#001F3F"/>
<path d="M97.6597 83.788C97.1373 83.72 96.6063 83.7807 96.1126 83.9649C95.6189 84.149 95.1775 84.451 94.8267 84.8448C92.1557 87.2828 89.3249 90.0309 88.8408 93.6184C88.7667 93.9454 88.8058 94.288 88.9516 94.5898C89.2089 95.0116 89.7742 95.105 90.2675 95.1132C91.5155 95.1258 92.7517 94.8709 93.8934 94.3658C95.0351 93.8606 96.0558 93.1168 96.8872 92.1842C97.3454 91.6634 97.7657 91.0674 98.3937 90.774C98.9678 90.56 99.5839 90.4835 100.193 90.5505C101.868 90.6055 105.694 91.4648 107.155 90.632C108.692 89.7564 108.269 87.0114 107.552 85.6878C105.847 82.5417 100.562 83.7565 97.6597 83.788Z" fill="#FBBEBE"/>
<path d="M134.941 57.3668C135.967 60.6747 135.366 64.4005 136.82 67.5433C137.785 69.6293 139.6 71.3108 140.163 73.5401C140.694 75.6467 139.982 77.9168 138.734 79.6936C137.486 81.4705 135.748 82.8351 134.006 84.1281C132.097 85.5441 130.115 86.9259 127.867 87.6915C125.624 88.4552 123.221 88.5707 120.855 88.6794L105.171 89.3997L102.283 80.7237L112.502 76.7133C113.525 76.3119 114.567 75.906 115.662 75.8248C117.554 75.6846 119.86 76.3803 121.075 74.921C121.461 74.3847 121.707 73.76 121.789 73.104C122.78 68.007 121.918 62.6141 123.443 57.6513C124.198 55.1949 126.377 50.2676 129.348 49.8341C132.497 49.3746 134.229 55.0716 134.941 57.3668Z" fill="#D7E5F2"/>
</svg>
