<svg width="300" height="200" viewBox="0 0 300 200" fill="none" xmlns="http://www.w3.org/2000/svg">
<path opacity="0.1" d="M174.15 46.3775C154.936 45.767 136.633 40.0803 119.158 33.8608C101.684 27.6412 84.3699 20.7416 65.6139 17.4538C53.5496 15.3333 39.756 15.0442 30.0348 20.9612C20.6836 26.664 17.6595 36.5114 16.0348 45.6492C14.8123 52.5221 14.0938 59.7563 17.4423 66.1927C19.7694 70.6586 23.8981 74.415 26.7533 78.6934C36.6917 93.585 29.6675 111.946 18.8981 126.485C13.8472 133.296 7.98924 139.813 4.09112 147.071C0.192996 154.329 -1.60593 162.651 1.80157 170.056C5.18227 177.398 13.2359 182.908 21.9624 186.79C39.6836 194.667 60.5683 196.921 80.9437 198.198C126.008 201.033 171.316 199.799 216.525 198.576C233.252 198.12 250.038 197.663 266.507 195.29C275.643 193.973 285.078 191.885 291.708 186.841C300.131 180.439 302.217 169.596 296.574 161.569C287.11 148.102 260.938 144.755 254.322 130.305C250.673 122.348 254.426 113.483 259.716 106.11C271.067 90.2838 290.097 76.3909 291.099 58.3079C291.788 45.8822 282.641 33.4377 268.496 27.5582C253.67 21.4002 233.107 22.1713 222.172 32.3775C210.909 42.8755 191.118 46.9183 174.15 46.3775Z" fill="#001F3F"/>
<path d="M79.193 120.364L79.1073 125.087L78.4048 163.379L72.3968 177.432L51.689 177.668V122.538L73.3003 120.83L79.193 120.364Z" fill="#5F5D7E"/>
<path opacity="0.1" d="M79.193 120.364L79.1073 125.087L78.4048 163.379L72.3968 177.432L51.689 177.668V122.538L73.3003 120.83L79.193 120.364Z" fill="black"/>
<path d="M79.193 120.364L79.1072 125.087L78.4048 163.379L72.3968 177.432L73.9786 125.178L73.9732 125.143L73.3003 120.83L79.193 120.364Z" fill="#5F5D7E"/>
<path opacity="0.1" d="M73.3003 120.83L79.193 120.364L79.1073 125.087L73.9732 125.143L51.689 125.392V122.538L73.3003 120.83Z" fill="black"/>
<path d="M265.33 122.538V177.349H260.509L241.223 163.301V120.993L258.453 119.376L259.509 119.861L260.509 120.321L265.33 122.538Z" fill="#5F5D7E"/>
<path opacity="0.1" d="M265.33 119.861H260.509V177.349H265.33V119.861Z" fill="black"/>
<path opacity="0.1" d="M265.33 119.861V123.012L260.509 123.068L241.223 123.28V120.993L258.453 119.376L259.509 119.861L260.509 120.321V119.861H265.33Z" fill="black"/>
<path d="M265.33 118.072V122.538L28.4531 125.178V119.494L50.7399 114.993L244.7 113.574L265.33 118.072Z" fill="#5F5D7E"/>
<path opacity="0.1" d="M265.33 118.072V122.538L28.4531 125.178V119.494L265.33 118.072Z" fill="black"/>
<path opacity="0.1" d="M68.8177 117.116C74.7151 117.116 79.496 116.811 79.496 116.434C79.496 116.057 74.7151 115.751 68.8177 115.751C62.9202 115.751 58.1394 116.057 58.1394 116.434C58.1394 116.811 62.9202 117.116 68.8177 117.116Z" fill="black"/>
<path d="M77.7801 90.0375C77.554 90.3495 77.3735 90.6921 77.2439 91.0549C77.2118 91.1432 77.1796 91.245 77.1474 91.3414C77.0868 91.3124 77.0229 91.2908 76.9571 91.2771C76.6815 91.2066 76.3963 91.1813 76.1126 91.2021C76.1126 91.0933 76.1179 90.9781 76.1287 90.8568C76.1635 89.6091 76.0161 87.8688 74.823 88.6051C73.6809 89.3146 74.496 90.4953 75.2332 91.2584C75.2976 91.3253 75.3619 91.3869 75.4236 91.4458C74.7507 91.9277 74.6193 93.0388 74.5094 94.2008C74.3994 95.3628 73.4102 96.6372 72.756 97.3601L72.5683 97.5609C72.3036 97.3488 71.9967 97.1955 71.6681 97.111C71.3394 97.0265 70.9965 97.0129 70.6622 97.0709C70.6318 96.9692 70.6023 96.8621 70.5737 96.7497C70.0375 94.8353 68.941 91.5181 67.5335 90.7898L67.7185 90.5569C68.3163 89.7751 68.9893 88.6158 67.9866 88.3186C66.9839 88.0214 66.9142 89.3253 66.9598 90.2999C66.9598 90.423 66.9759 90.5381 66.9866 90.6479C66.7892 90.6583 66.5961 90.7085 66.4187 90.7955C66.2413 90.8824 66.0833 91.0044 65.9544 91.1539C65.9061 91.095 65.8579 91.0361 65.8016 90.9719C64.9973 90.0214 63.5174 88.5167 63.0697 89.6573C62.6541 90.7282 63.9544 92.0937 64.8713 92.8916L64.9276 92.9424C64.3137 95.4324 66.9946 97.4618 68.4397 98.348L68.6246 98.4632C66.6327 100.806 65.4075 105.199 65.4075 105.199L70.9839 106.195C70.9839 106.195 74.6809 103.009 74.2011 100.016H74.2386C77.933 99.2771 78.7748 95.3414 78.1984 93.0067L78.2654 92.9799C78.9374 92.7029 79.5265 92.2575 79.9758 91.6867C81.0107 90.249 78.8418 88.6292 77.7801 90.0375Z" fill="#001F3F"/>
<path opacity="0.1" d="M77.7801 90.0375C77.554 90.3495 77.3735 90.6921 77.2439 91.0549C77.2118 91.1432 77.1796 91.245 77.1474 91.3414C77.0868 91.3124 77.0229 91.2908 76.9571 91.2771C76.6815 91.2066 76.3963 91.1813 76.1126 91.2021C76.1126 91.0933 76.1179 90.9781 76.1287 90.8568C76.1635 89.6091 76.0161 87.8688 74.823 88.6051C73.6809 89.3146 74.496 90.4953 75.2332 91.2584C75.2976 91.3253 75.3619 91.3869 75.4236 91.4458C74.7507 91.9277 74.6193 93.0388 74.5094 94.2008C74.3994 95.3628 73.4102 96.6372 72.756 97.3601L72.5683 97.5609C72.3036 97.3488 71.9967 97.1955 71.6681 97.111C71.3394 97.0265 70.9965 97.0129 70.6622 97.0709C70.6318 96.9692 70.6023 96.8621 70.5737 96.7497C70.0375 94.8353 68.941 91.5181 67.5335 90.7898L67.7185 90.5569C68.3163 89.7751 68.9893 88.6158 67.9866 88.3186C66.9839 88.0214 66.9142 89.3253 66.9598 90.2999C66.9598 90.423 66.9759 90.5381 66.9866 90.6479C66.7892 90.6583 66.5961 90.7085 66.4187 90.7955C66.2413 90.8824 66.0833 91.0044 65.9544 91.1539C65.9061 91.095 65.8579 91.0361 65.8016 90.9719C64.9973 90.0214 63.5174 88.5167 63.0697 89.6573C62.6541 90.7282 63.9544 92.0937 64.8713 92.8916L64.9276 92.9424C64.3137 95.4324 66.9946 97.4618 68.4397 98.348L68.6246 98.4632C66.6327 100.806 65.4075 105.199 65.4075 105.199L70.9839 106.195C70.9839 106.195 74.6809 103.009 74.2011 100.016H74.2386C77.933 99.2771 78.7748 95.3414 78.1984 93.0067L78.2654 92.9799C78.9374 92.7029 79.5265 92.2575 79.9758 91.6867C81.0107 90.249 78.8418 88.6292 77.7801 90.0375Z" fill="black"/>
<path d="M66.6783 91.6439L66.0268 93.5502C66.0268 93.5502 65.6649 93.2958 65.2065 92.8916C64.2922 92.0883 62.9893 90.7175 63.4075 89.6573C63.8553 88.5167 65.3325 90.0214 66.1394 90.9719C66.4638 91.3521 66.6783 91.6439 66.6783 91.6439Z" fill="#001F3F"/>
<path d="M68.0536 90.5569C67.855 90.8168 67.6429 91.0661 67.4182 91.3039C67.3627 90.9714 67.3242 90.6363 67.303 90.2999C67.2493 89.3253 67.3512 88.0294 68.3297 88.3186C69.3083 88.6078 68.6514 89.7751 68.0536 90.5569Z" fill="#001F3F"/>
<path d="M76.4638 90.8567C76.445 91.4833 76.3834 91.9839 76.3834 91.9839C76.0985 91.7613 75.8297 91.5189 75.5791 91.2584C74.8418 90.4953 74.0241 89.3146 75.1689 88.6051C76.3512 87.8688 76.4987 89.6091 76.4638 90.8567Z" fill="#001F3F"/>
<path d="M80.3164 91.6787C79.867 92.2494 79.2779 92.6948 78.6059 92.9719C78.4191 93.0524 78.2275 93.1213 78.0322 93.178L77.2628 92.1071C77.3453 91.7513 77.4519 91.4016 77.5818 91.0602C77.7113 90.6974 77.8919 90.3549 78.118 90.0428C79.1823 88.6292 81.3512 90.249 80.3164 91.6787Z" fill="#001F3F"/>
<path opacity="0.1" d="M66.1394 90.9719C66.4638 91.3521 66.6756 91.6439 66.6756 91.6439L66.0241 93.5502C66.0241 93.5502 65.6622 93.2958 65.2037 92.8916C65.3052 92.2814 65.5577 91.7062 65.9383 91.2182C66.0053 91.1298 66.0724 91.0469 66.1394 90.9719Z" fill="black"/>
<path opacity="0.1" d="M68.0536 90.5569C67.855 90.8168 67.643 91.0661 67.4183 91.3039C67.3628 90.9714 67.3243 90.6363 67.303 90.2999C67.5738 90.3059 67.8361 90.3957 68.0536 90.5569Z" fill="black"/>
<path d="M71.2601 98.1232L69.6381 98.8354C69.3421 98.6879 69.054 98.5252 68.7748 98.3481C67.0697 97.3012 63.6435 94.6667 65.941 91.5582C68.2386 88.4498 70.1555 94.0241 70.9089 96.7497C71.1367 97.5636 71.2601 98.1232 71.2601 98.1232Z" fill="#001F3F"/>
<path opacity="0.1" d="M75.571 91.261C75.806 91.0177 76.1257 90.8739 76.4638 90.8594C76.4451 91.4859 76.3834 91.9866 76.3834 91.9866C76.0957 91.7643 75.8243 91.5218 75.571 91.261Z" fill="black"/>
<path opacity="0.1" d="M78.6059 92.9719C78.4191 93.0524 78.2275 93.1213 78.0322 93.178L77.2628 92.1071C77.3453 91.7513 77.4518 91.4016 77.5818 91.0602C78.0778 91.344 78.4424 92.0643 78.6059 92.9719Z" fill="black"/>
<path d="M74.5791 100.008C74.4897 100.026 74.4004 100.042 74.311 100.056C68.8767 100.884 72.5201 97.9518 72.5201 97.9518C72.5201 97.9518 72.7641 97.7269 73.0965 97.3601C73.7507 96.6372 74.74 95.3708 74.8526 94.2008C75.0215 92.4418 75.2198 90.7925 77.3003 91.2771C79.3807 91.7617 79.7266 98.9799 74.5791 100.008Z" fill="#001F3F"/>
<path d="M74.4799 113.526H64.0911V116.254H74.4799V113.526Z" fill="#474157"/>
<path d="M76.0134 104.661H62.4397V114.182H76.0134V104.661Z" fill="#474157"/>
<path opacity="0.1" d="M74.378 113.526H63.9893V116.254H74.378V113.526Z" fill="black"/>
<path opacity="0.1" d="M75.9705 104.661H62.3968V114.182H75.9705V104.661Z" fill="black"/>
<path d="M75.1635 113.526H64.7748V116.254H75.1635V113.526Z" fill="#474157"/>
<path opacity="0.1" d="M70.9088 96.7497C71.1367 97.5529 71.26 98.1232 71.26 98.1232L69.6381 98.8353C69.3421 98.6879 69.0539 98.5252 68.7748 98.3481C69.4102 97.5448 70.126 96.9371 70.9088 96.7497Z" fill="black"/>
<path opacity="0.1" d="M74.5791 100.008C74.4897 100.026 74.4004 100.042 74.311 100.056C68.8767 100.884 72.5201 97.9518 72.5201 97.9518C72.5201 97.9518 72.7641 97.7269 73.0965 97.3601C74.1046 98.1714 74.5335 99.0843 74.5791 100.008Z" fill="black"/>
<path d="M65.74 105.199C65.74 105.199 68.7856 94.3159 73.0536 97.6707C77.3217 101.025 71.3164 106.195 71.3164 106.195L65.74 105.199Z" fill="#001F3F"/>
<path opacity="0.1" d="M67.2788 93.6037C67.4669 93.6037 67.6193 93.4515 67.6193 93.2637C67.6193 93.0759 67.4669 92.9237 67.2788 92.9237C67.0908 92.9237 66.9384 93.0759 66.9384 93.2637C66.9384 93.4515 67.0908 93.6037 67.2788 93.6037Z" fill="black"/>
<path opacity="0.1" d="M67.2494 95.1968C67.4374 95.1968 67.5898 95.0446 67.5898 94.8568C67.5898 94.669 67.4374 94.5167 67.2494 94.5167C67.0613 94.5167 66.9089 94.669 66.9089 94.8568C66.9089 95.0446 67.0613 95.1968 67.2494 95.1968Z" fill="black"/>
<path opacity="0.1" d="M77.1528 93.917C77.3408 93.917 77.4933 93.7648 77.4933 93.577C77.4933 93.3892 77.3408 93.2369 77.1528 93.2369C76.9648 93.2369 76.8123 93.3892 76.8123 93.577C76.8123 93.7648 76.9648 93.917 77.1528 93.917Z" fill="black"/>
<path opacity="0.1" d="M69.185 102.072C69.373 102.072 69.5254 101.92 69.5254 101.732C69.5254 101.544 69.373 101.392 69.185 101.392C68.9969 101.392 68.8445 101.544 68.8445 101.732C68.8445 101.92 68.9969 102.072 69.185 102.072Z" fill="black"/>
<path opacity="0.1" d="M76.4397 96.5596C76.6277 96.5596 76.7802 96.4073 76.7802 96.2195C76.7802 96.0318 76.6277 95.8795 76.4397 95.8795C76.2516 95.8795 76.0992 96.0318 76.0992 96.2195C76.0992 96.4073 76.2516 96.5596 76.4397 96.5596Z" fill="black"/>
<path opacity="0.1" d="M72.9115 100.083C73.0996 100.083 73.252 99.9308 73.252 99.743C73.252 99.5552 73.0996 99.4029 72.9115 99.4029C72.7235 99.4029 72.571 99.5552 72.571 99.743C72.571 99.9308 72.7235 100.083 72.9115 100.083Z" fill="black"/>
<path opacity="0.1" d="M68.445 94.2865C68.6331 94.2865 68.7855 94.1342 68.7855 93.9465C68.7855 93.7587 68.6331 93.6064 68.445 93.6064C68.257 93.6064 68.1046 93.7587 68.1046 93.9465C68.1046 94.1342 68.257 94.2865 68.445 94.2865Z" fill="black"/>
<path opacity="0.1" d="M76.2118 94.9398C76.3999 94.9398 76.5523 94.7875 76.5523 94.5997C76.5523 94.4119 76.3999 94.2597 76.2118 94.2597C76.0238 94.2597 75.8713 94.4119 75.8713 94.5997C75.8713 94.7875 76.0238 94.9398 76.2118 94.9398Z" fill="black"/>
<path opacity="0.1" d="M75.0456 97.5823C75.2336 97.5823 75.386 97.4301 75.386 97.2423C75.386 97.0545 75.2336 96.9023 75.0456 96.9023C74.8575 96.9023 74.7051 97.0545 74.7051 97.2423C74.7051 97.4301 74.8575 97.5823 75.0456 97.5823Z" fill="black"/>
<path opacity="0.1" d="M71.4611 101.818C71.6492 101.818 71.8016 101.666 71.8016 101.478C71.8016 101.29 71.6492 101.138 71.4611 101.138C71.2731 101.138 71.1207 101.29 71.1207 101.478C71.1207 101.666 71.2731 101.818 71.4611 101.818Z" fill="black"/>
<path opacity="0.1" d="M70.7212 100.142C70.9092 100.142 71.0616 99.9897 71.0616 99.8019C71.0616 99.6141 70.9092 99.4618 70.7212 99.4618C70.5331 99.4618 70.3807 99.6141 70.3807 99.8019C70.3807 99.9897 70.5331 100.142 70.7212 100.142Z" fill="black"/>
<path opacity="0.1" d="M68.9571 96.3615C69.1452 96.3615 69.2976 96.2092 69.2976 96.0214C69.2976 95.8336 69.1452 95.6814 68.9571 95.6814C68.7691 95.6814 68.6166 95.8336 68.6166 96.0214C68.6166 96.2092 68.7691 96.3615 68.9571 96.3615Z" fill="black"/>
<path opacity="0.1" d="M75.1635 113.526H64.7748V114.522H75.1635V113.526Z" fill="black"/>
<path d="M76.697 104.661H63.1234V114.182H76.697V104.661Z" fill="#474157"/>
<path opacity="0.1" d="M71.9169 103.352C72.1049 103.352 72.2574 103.2 72.2574 103.012C72.2574 102.824 72.1049 102.672 71.9169 102.672C71.7289 102.672 71.5764 102.824 71.5764 103.012C71.5764 103.2 71.7289 103.352 71.9169 103.352Z" fill="black"/>
<path opacity="0.1" d="M69.8659 103.778C70.054 103.778 70.2064 103.626 70.2064 103.438C70.2064 103.25 70.054 103.098 69.8659 103.098C69.6779 103.098 69.5255 103.25 69.5255 103.438C69.5255 103.626 69.6779 103.778 69.8659 103.778Z" fill="black"/>
<path d="M151.601 114.201V114.752H135.271V114.305C136.299 113.925 137.186 113.239 137.812 112.34C138.438 111.441 138.773 110.372 138.772 109.277C138.772 108.251 138.477 107.247 137.922 106.383C137.367 105.52 136.575 104.834 135.641 104.407H151.491C150.545 104.837 149.745 105.532 149.188 106.408C148.631 107.284 148.341 108.302 148.352 109.34C148.364 110.377 148.677 111.389 149.254 112.252C149.831 113.115 150.646 113.792 151.601 114.201Z" fill="#C8CAD7"/>
<path opacity="0.1" d="M151.491 104.407C150.762 104.741 150.118 105.233 149.606 105.848C149.093 106.462 148.725 107.184 148.528 107.96H138.609C138.41 107.184 138.041 106.463 137.527 105.848C137.014 105.233 136.369 104.741 135.641 104.407H151.491Z" fill="black"/>
<path d="M116.571 101.596V104.693C116.571 106.402 117.826 107.788 119.37 107.788H167.416C168.96 107.788 170.214 106.402 170.214 104.693V101.596H116.571Z" fill="#C8CAD7"/>
<path opacity="0.1" d="M151.601 114.201V114.752H135.271V114.305C135.719 114.139 136.142 113.914 136.531 113.636H150.601C150.913 113.859 151.248 114.049 151.601 114.201Z" fill="black"/>
<path d="M156.182 113.807H130.694C130.243 113.807 129.877 114.173 129.877 114.624C129.877 115.075 130.243 115.44 130.694 115.44H156.182C156.634 115.44 157 115.075 157 114.624C157 114.173 156.634 113.807 156.182 113.807Z" fill="#C8CAD7"/>
<path d="M170.214 67.676C170.214 67.309 170.142 66.9455 170.001 66.6064C169.861 66.2672 169.655 65.9591 169.395 65.6995C169.135 65.44 168.826 65.2341 168.487 65.0936C168.147 64.9531 167.783 64.8808 167.416 64.8808H119.37C118.628 64.8808 117.916 65.1753 117.391 65.6995C116.866 66.2237 116.571 66.9347 116.571 67.676V102.198H170.214V67.676Z" fill="#5F5D7E"/>
<path d="M168.751 68.921V98.5864C168.751 98.9513 168.605 99.3014 168.347 99.5595C168.089 99.8175 167.738 99.9625 167.373 99.9625H119.413C119.047 99.9625 118.697 99.8175 118.438 99.5595C118.18 99.3014 118.035 98.9513 118.035 98.5864V68.921C118.039 68.679 118.107 68.4424 118.233 68.2356C118.354 68.0267 118.528 67.8531 118.738 67.7324C118.947 67.6116 119.184 67.5479 119.426 67.5475H167.373C167.738 67.5475 168.088 67.6922 168.346 67.9497C168.604 68.2072 168.75 68.5565 168.751 68.921Z" fill="#001F3F"/>
<path d="M143.394 66.8568C143.751 66.8568 144.04 66.5679 144.04 66.2115C144.04 65.8551 143.751 65.5662 143.394 65.5662C143.037 65.5662 142.748 65.8551 142.748 66.2115C142.748 66.5679 143.037 66.8568 143.394 66.8568Z" fill="white"/>
<path d="M143.394 106.412C144.274 106.412 144.987 105.7 144.987 104.822C144.987 103.944 144.274 103.232 143.394 103.232C142.515 103.232 141.802 103.944 141.802 104.822C141.802 105.7 142.515 106.412 143.394 106.412Z" fill="white"/>
<path d="M168.751 68.921H118.035C118.035 68.556 118.18 68.206 118.438 67.9479C118.697 67.6898 119.047 67.5448 119.413 67.5448H167.373C167.738 67.5448 168.089 67.6898 168.347 67.9479C168.605 68.206 168.751 68.556 168.751 68.921Z" fill="white"/>
<path d="M119.416 68.5756C119.605 68.5756 119.759 68.4222 119.759 68.2329C119.759 68.0437 119.605 67.8902 119.416 67.8902C119.226 67.8902 119.072 68.0437 119.072 68.2329C119.072 68.4222 119.226 68.5756 119.416 68.5756Z" fill="#EDEDF4"/>
<path d="M120.448 68.5756C120.637 68.5756 120.791 68.4222 120.791 68.2329C120.791 68.0437 120.637 67.8902 120.448 67.8902C120.258 67.8902 120.105 68.0437 120.105 68.2329C120.105 68.4222 120.258 68.5756 120.448 68.5756Z" fill="#EDEDF4"/>
<path d="M121.48 68.5756C121.669 68.5756 121.823 68.4222 121.823 68.2329C121.823 68.0437 121.669 67.8902 121.48 67.8902C121.29 67.8902 121.137 68.0437 121.137 68.2329C121.137 68.4222 121.29 68.5756 121.48 68.5756Z" fill="#EDEDF4"/>
<path d="M214.885 47.3226C214.885 47.3226 215.035 47.3574 215.295 47.4297C215.17 47.358 215.029 47.321 214.885 47.3226Z" fill="#67647E"/>
<path opacity="0.1" d="M214.885 47.3226C214.885 47.3226 215.035 47.3574 215.295 47.4297C215.17 47.358 215.029 47.321 214.885 47.3226Z" fill="black"/>
<path opacity="0.1" d="M210.416 174.95C208.717 175.075 207.027 174.612 205.63 173.639L210.416 174.95Z" fill="black"/>
<path opacity="0.1" d="M163.512 107.748C163.453 107.748 163.397 107.735 163.34 107.724C163.399 107.718 163.458 107.726 163.512 107.748Z" fill="black"/>
<path d="M158.177 118.026V118.608H126.542V118.142L126.585 118.026L127.365 115.93H157.53L158.177 118.026Z" fill="#C8CAD7"/>
<path d="M170.232 117.309C170.174 117.542 169.958 117.787 169.469 118.019C167.713 118.853 164.144 117.797 164.144 117.797C164.144 117.797 161.394 117.353 161.394 116.185C161.471 116.135 161.552 116.09 161.635 116.049C162.373 115.678 164.82 114.763 169.159 116.088C169.478 116.183 169.764 116.361 169.983 116.601C170.081 116.692 170.154 116.804 170.197 116.927C170.24 117.05 170.252 117.181 170.232 117.309Z" fill="#B6B8C4"/>
<path opacity="0.1" d="M170.232 117.467C168.09 118.314 166.181 118.377 164.222 116.973C163.481 116.408 162.584 116.103 161.662 116.104C162.398 115.702 164.837 114.711 169.162 116.145C169.481 116.249 169.765 116.441 169.984 116.701C170.081 116.8 170.154 116.921 170.197 117.054C170.24 117.187 170.252 117.329 170.232 117.467Z" fill="#C8CAD7"/>
<path d="M163.539 115.93C163.983 115.93 164.343 115.811 164.343 115.663C164.343 115.515 163.983 115.395 163.539 115.395C163.095 115.395 162.735 115.515 162.735 115.663C162.735 115.811 163.095 115.93 163.539 115.93Z" fill="#F2F2F2"/>
<path opacity="0.1" d="M158.177 118.072V118.608H126.542V118.179L126.585 118.072H158.177Z" fill="black"/>
<circle cx="265" cy="119" r="7" fill="#57B894"/>
<circle cx="169" cy="65" r="7" fill="#57B894"/>
<circle cx="171" cy="115" r="4.66667" fill="#57B894"/>
</svg>
